<?xml version="1.0" encoding="utf-8"?>
<svg xmlns="http://www.w3.org/2000/svg" viewBox="0 0 30 30" width="60" height="60">
  <path d="M6 4C4.895 4 4 4.895 4 6L4 24C4 25.105 4.895 26 6 26L24 26C25.105 26 26 25.105 26 24L26 6C26 4.895 25.105 4 24 4L6 4 z M 19.660156 9.2480469C20.282156 9.2480469 20.707031 9.6445469 20.707031 10.185547C20.707031 10.726547 20.282156 11.123047 19.660156 11.123047C19.045156 11.123047 18.615234 10.726547 18.615234 10.185547C18.615234 9.6445469 19.045156 9.2480469 19.660156 9.2480469 z M 11.792969 9.953125L13.775391 9.953125L17.28125 19.818359L15.388672 19.818359L14.554688 17.296875L10.925781 17.296875L10.076172 19.818359L8.2929688 19.818359L11.792969 9.953125 z M 12.6875 11.832031L11.335938 15.900391L14.144531 15.900391L12.804688 11.832031L12.6875 11.832031 z M 18.820312 12.339844L20.507812 12.339844L20.507812 19.818359L18.820312 19.818359L18.820312 12.339844 z" fill="#FFFFFF" />
</svg>