<?xml version="1.0" encoding="utf-8"?>
<svg xmlns="http://www.w3.org/2000/svg" viewBox="0 0 30 30" width="60" height="60">
  <path d="M13 3C10.791 3 9 4.791 9 7L9 8L14 8C14.552 8 15 8.448 15 9C15 9.552 14.552 10 14 10L9 10L8 10L7 10C4.791 10 3 11.791 3 14L3 18C3 20.209 4.791 22 7 22L8 22L8 17C8 15.346 9.346 14 11 14L19 14C19.552 14 20 13.552 20 13L20 7C20 4.791 18.209 3 16 3L13 3 z M 12 5C12.552 5 13 5.448 13 6C13 6.552 12.552 7 12 7C11.448 7 11 6.552 11 6C11 5.448 11.448 5 12 5 z M 22 8L22 13C22 14.654 20.654 16 19 16L11 16C10.448 16 10 16.448 10 17L10 23C10 25.209 11.791 27 14 27L17 27C19.209 27 21 25.209 21 23L21 22L16 22C15.448 22 15 21.552 15 21C15 20.448 15.448 20 16 20L21 20L22 20L23 20C25.209 20 27 18.209 27 16L27 12C27 9.791 25.209 8 23 8L22 8 z M 18 23C18.552 23 19 23.448 19 24C19 24.552 18.552 25 18 25C17.448 25 17 24.552 17 24C17 23.448 17.448 23 18 23 z" fill="#FFFFFF" />
</svg>