<?xml version="1.0" encoding="utf-8"?>
<svg xmlns="http://www.w3.org/2000/svg" viewBox="0 0 30 30" width="60" height="60">
  <path d="M6 4C4.895 4 4 4.895 4 6L4 24C4 25.105 4.895 26 6 26L24 26C25.105 26 26 25.105 26 24L26 6C26 4.895 25.105 4 24 4L6 4 z M 8 9.9921875L11.978516 9.9921875C13.947516 9.9921875 15.294922 11.339125 15.294922 13.328125C15.294922 15.283125 13.898344 16.623047 11.902344 16.623047L9.7636719 16.623047L9.7636719 19.857422L8 19.857422L8 9.9921875 z M 9.7636719 11.46875L9.7636719 15.160156L11.507812 15.160156C12.765813 15.160156 13.503906 14.504125 13.503906 13.328125C13.503906 12.119125 12.784672 11.46875 11.513672 11.46875L9.7636719 11.46875 z M 19.207031 12.226562C20.984031 12.226562 22.099656 13.013047 22.222656 14.373047L20.630859 14.373047C20.507859 13.847047 20.007844 13.511719 19.214844 13.511719C18.442844 13.511719 17.861328 13.881875 17.861328 14.421875C17.861328 14.845875 18.21675 15.105391 18.96875 15.275391L20.287109 15.576172C21.716109 15.897172 22.378906 16.513281 22.378906 17.613281C22.378906 19.050281 21.059359 20.007813 19.193359 20.007812C17.327359 20.007812 16.151484 19.199844 16.021484 17.839844L17.697266 17.839844C17.861266 18.393844 18.386375 18.722656 19.234375 18.722656C20.088375 18.722656 20.683594 18.346969 20.683594 17.792969C20.683594 17.368969 20.363344 17.101359 19.652344 16.943359L18.326172 16.636719C16.890172 16.308719 16.214844 15.645578 16.214844 14.517578C16.214844 13.163578 17.443031 12.226562 19.207031 12.226562 z" fill="#FFFFFF" />
</svg>