<?xml version="1.0" encoding="utf-8"?>
<svg xmlns="http://www.w3.org/2000/svg" viewBox="0 0 30 30" width="60" height="60">
  <path d="M15 3C8.373 3 3 8.373 3 15C3 21.627 8.373 27 15 27C21.627 27 27 21.627 27 15C27 8.373 21.627 3 15 3 z M 15 5C16.657 5 18 5.343 18 7C18 8.657 16.657 10 15 10C13.343 10 12 8.657 12 7C12 5.343 13.343 5 15 5 z M 7.765625 9.5585938C7.9377148 9.5724961 8.1213594 9.6117812 8.3183594 9.6757812C9.8943594 10.187781 10.756141 11.879078 10.244141 13.455078C9.7331406 15.031078 8.0408438 15.892859 6.4648438 15.380859C4.8888437 14.868859 4.9762813 13.486156 5.4882812 11.910156C5.9362813 10.531156 6.5609961 9.4612773 7.765625 9.5585938 z M 22.234375 9.5585938C23.439004 9.4612773 24.063719 10.531156 24.511719 11.910156C25.023719 13.486156 25.110156 14.868859 23.535156 15.380859C21.959156 15.892859 20.267859 15.031078 19.755859 13.455078C19.243859 11.879078 20.105641 10.187781 21.681641 9.6757812C21.878641 9.6117812 22.062285 9.5724961 22.234375 9.5585938 z M 15 13C16.105 13 17 13.895 17 15C17 16.105 16.105 17 15 17C13.895 17 13 16.105 13 15C13 13.895 13.895 13 15 13 z M 19.597656 18.472656C20.560225 18.439736 21.520781 18.870859 22.128906 19.708984C23.101906 21.049984 22.218906 22.115844 20.878906 23.089844C19.538906 24.063844 18.249391 24.575375 17.275391 23.234375C16.301391 21.894375 16.598453 20.017922 17.939453 19.044922C18.441953 18.679672 19.020115 18.492408 19.597656 18.472656 z M 10.402344 18.474609C10.979762 18.494238 11.558047 18.679672 12.060547 19.044922C13.400547 20.018922 13.698609 21.894375 12.724609 23.234375C11.750609 24.574375 10.462094 24.063844 9.1210938 23.089844C7.7800938 22.115844 6.8970938 21.048984 7.8710938 19.708984C8.4798438 18.871484 9.4399805 18.441895 10.402344 18.474609 z M 27 22.183594C26.433 23.128594 25.766 24.006063 25 24.789062L25 25C25 27.206 26.794 29 29 29C29.553 29 30 28.553 30 28C30 27.447 29.553 27 29 27C27.897 27 27 26.103 27 25L27 22.183594 z" fill="#FFFFFF" />
</svg>