<?xml version="1.0" encoding="UTF-8"?>
<svg xmlns="http://www.w3.org/2000/svg" viewBox="0 0 500 500">
  <defs>
    <style>
      .cls-1 {
        fill: #3c3c6a;
      }

      .cls-2 {
        fill: #fd4b61;
      }

      .cls-3 {
        fill: #fff;
      }

      .cls-4 {
        fill: #ff4767;
      }

      .cls-5 {
        fill: #daebff;
      }

      .cls-6 {
        fill: #00bad9;
      }

      .cls-7 {
        fill: #c7ddf5;
      }

      .cls-8 {
        fill: #832ddb;
      }

      .cls-9 {
        fill: #0092c4;
      }

      .cls-10 {
        fill: #9a5bfd;
      }

      .cls-11 {
        fill: #ec7b7b;
      }

      .cls-12 {
        fill: #ffae0b;
      }

      .cls-13 {
        fill: #f7891b;
      }

      .cls-14 {
        fill: #d8234f;
      }

      .cls-15 {
        fill: #0d0a3e;
      }

      .cls-16 {
        fill: #fbca50;
      }

      .cls-17 {
        fill: #ffa19f;
      }
    </style>
  </defs>
  <g id="BACKGROUND">
    <rect class="cls-3" width="500" height="500"/>
  </g>
  <g id="OBJECTS">
    <g>
      <path class="cls-5" d="m215.55,132.57s4.51-9.98,16.83-7c12.18,2.94,17.43-14.51,28.28-13.38,10.85,1.12,6.96,11.14,20.8,13.38,13.84,2.24,17.85-3.22,23.68,7h-89.58Z"/>
      <path class="cls-5" d="m375.53,237.45s4.51-9.98,16.83-7c12.18,2.94,17.43-14.51,28.28-13.38,10.85,1.12,6.96,11.14,20.8,13.38,13.84,2.24,17.85-3.22,23.67,7h-89.58Z"/>
      <path class="cls-5" d="m413.96,392.82c8.48-8.97,26.56-28.83,21.49-59.95-3.45-21.19-5.69-54.1-88.09-74.31-82.4-20.21-85.25-76.18-142.77-116.33-57.52-40.14-114.94,1.48-100.89,64.01,13.66,60.79-22.98,61.93-40.84,98.53-20.53,42.06,14.69,88.23,54.74,88.05h296.37Z"/>
    </g>
    <g>
      <g>
        <path class="cls-2" d="m58.36,232.81c-.75,0-1.39-.51-1.55-1.24-.61-2.65-1.46-3.49-4.1-4.1-.73-.17-1.24-.81-1.24-1.55s.51-1.39,1.24-1.55c2.65-.61,3.49-1.46,4.1-4.1.17-.73.81-1.24,1.55-1.24s1.39.51,1.55,1.24c.61,2.65,1.46,3.49,4.1,4.1.73.17,1.24.81,1.24,1.55s-.51,1.39-1.24,1.55h0c-2.65.61-3.49,1.46-4.1,4.1-.17.73-.81,1.24-1.55,1.24Zm-4.17-6.9c2.27.72,3.45,1.9,4.17,4.17.72-2.27,1.9-3.45,4.17-4.17-2.27-.72-3.45-1.9-4.17-4.17-.72,2.27-1.9,3.45-4.17,4.17Zm9.62.63h0,0Z"/>
        <path class="cls-12" d="m80.39,246.11c-2.71,0-4.91-2.2-4.91-4.91s2.2-4.91,4.91-4.91,4.91,2.2,4.91,4.91-2.2,4.91-4.91,4.91Zm0-7.94c-1.67,0-3.02,1.36-3.02,3.02s1.36,3.02,3.02,3.02,3.02-1.36,3.02-3.02-1.36-3.02-3.02-3.02Z"/>
        <g>
          <path class="cls-6" d="m83.41,211.07c-.52,0-.94-.42-.94-.94v-2.5c0-.52.42-.94.94-.94s.94.42.94.94v2.5c0,.52-.42.94-.94.94Z"/>
          <path class="cls-6" d="m83.41,217.76c-.52,0-.94-.42-.94-.94v-2.5c0-.52.42-.95.94-.95s.94.42.94.95v2.5c0,.52-.42.94-.94.94Z"/>
          <g>
            <path class="cls-6" d="m81.43,212.95h-2.5c-.52,0-.94-.42-.94-.95s.42-.94.94-.94h2.5c.52,0,.94.42.94.94s-.42.95-.94.95Z"/>
            <path class="cls-6" d="m87.89,212.95h-2.5c-.52,0-.94-.42-.94-.95s.42-.94.94-.94h2.5c.52,0,.95.42.95.94s-.42.95-.95.95Z"/>
          </g>
        </g>
        <g>
          <path class="cls-10" d="m58.23,255.01c-.52,0-.95-.42-.95-.94v-2.5c0-.52.42-.94.95-.94s.94.42.94.94v2.5c0,.52-.42.94-.94.94Z"/>
          <path class="cls-10" d="m58.23,261.69c-.52,0-.95-.42-.95-.94v-2.5c0-.52.42-.94.95-.94s.94.42.94.94v2.5c0,.52-.42.94-.94.94Z"/>
          <g>
            <path class="cls-10" d="m56.25,256.89h-2.5c-.52,0-.94-.42-.94-.94s.42-.95.94-.95h2.5c.52,0,.94.42.94.95s-.42.94-.94.94Z"/>
            <path class="cls-10" d="m62.71,256.89h-2.5c-.52,0-.94-.42-.94-.94s.42-.95.94-.95h2.5c.52,0,.94.42.94.95s-.42.94-.94.94Z"/>
          </g>
        </g>
      </g>
      <g>
        <path class="cls-2" d="m472.88,335.18c-.61-2.65-1.46-3.49-4.1-4.1h0c-.73-.17-1.24-.81-1.24-1.55s.51-1.39,1.24-1.55c2.65-.61,3.49-1.46,4.1-4.1.17-.73.81-1.24,1.55-1.24s1.39.51,1.55,1.24c.61,2.65,1.46,3.49,4.1,4.1.73.17,1.24.81,1.24,1.55s-.51,1.39-1.24,1.55c-2.65.61-3.49,1.46-4.1,4.1-.17.73-.81,1.24-1.55,1.24s-1.39-.51-1.55-1.24Zm1.55-9.83c-.72,2.27-1.9,3.45-4.17,4.17,2.27.72,3.45,1.9,4.17,4.17.72-2.27,1.9-3.45,4.17-4.17-2.27-.72-3.45-1.9-4.17-4.17Zm-5.45,4.81h0,0Z"/>
        <path class="cls-12" d="m447.5,344.8c0-2.71,2.2-4.91,4.91-4.91s4.91,2.2,4.91,4.91-2.2,4.91-4.91,4.91-4.91-2.2-4.91-4.91Zm1.89,0c0,1.67,1.36,3.02,3.02,3.02s3.02-1.36,3.02-3.02-1.36-3.02-3.02-3.02-3.02,1.36-3.02,3.02Z"/>
        <g>
          <path class="cls-6" d="m449.39,314.68c.52,0,.94-.42.94-.94v-2.5c0-.52-.42-.94-.94-.94s-.94.42-.94.94v2.5c0,.52.42.94.94.94Z"/>
          <path class="cls-6" d="m449.39,321.37c.52,0,.94-.42.94-.94v-2.5c0-.52-.42-.94-.94-.94s-.94.42-.94.94v2.5c0,.52.42.94.94.94Z"/>
          <g>
            <path class="cls-6" d="m451.36,316.56h2.5c.52,0,.94-.42.94-.94s-.42-.94-.94-.94h-2.5c-.52,0-.94.42-.94.94s.42.94.94.94Z"/>
            <path class="cls-6" d="m444.91,316.56h2.5c.52,0,.94-.42.94-.94s-.42-.94-.94-.94h-2.5c-.52,0-.95.42-.95.94s.42.94.95.94Z"/>
          </g>
        </g>
        <g>
          <path class="cls-10" d="m474.57,358.62c.52,0,.94-.42.94-.94v-2.5c0-.52-.42-.94-.94-.94s-.94.42-.94.94v2.5c0,.52.42.94.94.94Z"/>
          <path class="cls-10" d="m474.57,365.3c.52,0,.94-.42.94-.94v-2.5c0-.52-.42-.94-.94-.94s-.94.42-.94.94v2.5c0,.52.42.94.94.94Z"/>
          <g>
            <path class="cls-10" d="m476.54,360.49h2.5c.52,0,.94-.42.94-.94s-.42-.94-.94-.94h-2.5c-.52,0-.94.42-.94.94s.42.94.94.94Z"/>
            <path class="cls-10" d="m470.09,360.49h2.5c.52,0,.94-.42.94-.94s-.42-.94-.94-.94h-2.5c-.52,0-.94.42-.94.94s.42.94.94.94Z"/>
          </g>
        </g>
      </g>
    </g>
    <g>
      <path class="cls-10" d="m453.68,172.44c0,17.73-14.37,32.09-32.09,32.09s-32.09-14.36-32.09-32.09c0-4.39.89-8.59,2.49-12.4l29.61,12.4-1.52-32.05c.5-.03,1.01-.04,1.52-.04,17.72,0,32.09,14.37,32.09,32.09Z"/>
      <path class="cls-12" d="m417.17,135.33c-9.59.44-18.07,5.1-23.66,12.15-1.8,2.27-3.29,4.79-4.43,7.5l29.61,12.4-1.52-32.05Z"/>
    </g>
    <g>
      <path class="cls-17" d="m223.08,362.47c-5.79-11.99-12.07-24.57-17.07-36.46-2.08-4.94-3.36-8.16-3.36-8.16,0,0,6.48-10.55,18.1-11.73,0,0,.68,1.34,1.84,3.63,5.2,10.29,16.73,32.05,21.77,44.85,6.17,15.65-12.82,25.35-21.27,7.87Z"/>
      <path class="cls-17" d="m242.84,381.35s-12.81-4.12-21.41-1.89c-8.6,2.24-11.62,13.03-11.62,13.03l33.04-.02s4.71-9.89,0-11.12Z"/>
      <path class="cls-15" d="m222.58,309.76c-2.91,3.81-8.77,10.76-16.57,16.26-2.08-4.94-3.36-8.16-3.36-8.16,0,0,6.48-10.55,18.1-11.73,0,0,.68,1.34,1.84,3.63Z"/>
      <path class="cls-15" d="m179.85,176.19s-18.01-3.69-29.49,7.01c-12.27,11.44-9.23,18.07-15.41,30-6.17,11.93-7.4,18.52-3.05,30.76,5.38,15.13-6.23,10.71-16.21,20.74s-15.24,29.76-3.75,36.62c11.49,6.85,47.55-44.75,62.64-33.56,15.09,11.19,14.67,27.72,25.95,22.97,11.28-4.75-4.02-28.45-1.96-38.23,2.05-9.78,8.63-26.33,9.78-38.17,1.15-11.85-3.18-33.91-28.51-38.13Z"/>
      <path class="cls-12" d="m223.09,305.41s-2.38,2.89-6.93,6.79c-1.22,1.05-2.6,2.17-4.13,3.33-.49.37-1,.75-1.52,1.12-.47.34-.95.68-1.44,1.02-.1.07-.2.14-.31.21-2.52,1.74-5.37,3.5-8.51,5.17-.21.11-.41.22-.62.33l-.08-.57-1.02-7.27-1.01-7.23-1.14-8.16-.71-5.06-.97-6.95s.2-1.29,1.09-3.15c.79-1.64,2.11-3.73,4.3-5.76,1.41-1.31,3.17-2.6,5.38-3.72,0,.01.01.02.02.03.08.14.48.8,1.12,1.85,0,0,0,.01.01.02.6,1,1.41,2.34,2.37,3.94.89,1.48,1.9,3.17,2.99,5,3.44,5.77,7.65,12.94,11.1,19.05Z"/>
      <path class="cls-13" d="m216.18,311.84c0,.12,0,.24-.02.35-1.22,1.05-2.6,2.17-4.13,3.33-1.28-.15-2.37-.96-2.9-2.07h0c-.24-.49-.37-1.04-.37-1.61,0-.42.07-.82.2-1.2h0c.5-1.47,1.89-2.52,3.52-2.52,2.05,0,3.71,1.66,3.71,3.71Z"/>
      <path class="cls-3" d="m208.13,287.39c-.01.08-1.11,8.22,1.35,17.74,1.15,4.46,1.31,8.36,1.04,11.53-.47.34-.95.68-1.44,1.02.41-3.23.39-7.4-.86-12.22-2.53-9.77-1.43-17.9-1.38-18.24.05-.35.38-.6.74-.55.35.05.6.38.55.74Z"/>
      <path class="cls-12" d="m209.8,386.42c-.14.13-.29.25-.43.38-2.59,2.21-5.33,4.1-8.18,5.69h-68.79c1.47-5,4.53-17.09,4.07-29.88-.22-6.15-1.35-13.75-2.93-21.56v-.02c-.1-.51-.21-1-.32-1.51h0c-.67-3.2-1.41-6.42-2.19-9.58-.23-.93-.46-1.86-.69-2.78-.12-.45-.24-.91-.35-1.36-.05-.19-.1-.37-.15-.56-.22-.83-.44-1.65-.66-2.46-.9-3.3-1.81-6.44-2.7-9.32,0,0,0-.01,0-.01-.1-.34-.21-.67-.31-1,0,0,0,0,0,0-.86-2.74-1.69-5.22-2.46-7.33-3.69-10.13-5.29-18.8-1.47-25.53,1.17-2.07,2.86-3.95,5.16-5.64,1.02-.75,2.1-1.49,3.22-2.22.71-.47,1.44-.92,2.17-1.37,2.61-1.6,5.32-3.11,7.82-4.44,1.03-.54,2.02-1.05,2.96-1.53h0c4.23-2.14,7.33-3.5,7.33-3.5,0,0,22.2-6.13,28.38-2.1,3.78,2.46,10.12,4.29,16.07,7.72,2.07,1.19,4.09,2.58,5.95,4.25,1.53,1.38,2.95,2.95,4.18,4.77,0,.01.01.02.02.03.46.67.83,1.29,1.12,1.85,0,0,0,.01.01.02,3.68,7.05-4.16,6.59,1.51,28.77.4,1.57.67,3.05.82,4.46h0c.11.97.16,1.9.17,2.81h0c.01,1.57-.12,3.04-.36,4.43-1.32,7.69-5.91,13.14-8.02,20.03-.35,1.13-.63,2.3-.82,3.53-.14.92-.2,1.98-.19,3.13.02,2.26.3,4.92.76,7.77.29,1.81.66,3.69,1.07,5.61,2.17,10.02,5.68,20.92,7.33,25.82.56,1.68.91,2.65.91,2.65Z"/>
      <path class="cls-12" d="m143.51,305.3l-.69,2.92-1.54,6.52-2.61,11.02c-1.83.07-3.56.04-5.21-.08-1.26-.09-2.46-.24-3.62-.43-1.13-.18-2.2-.4-3.23-.66-11.99-3-17.36-10.54-17.36-10.54,1.13-4.16,2.68-9.1,4.37-13.98.76-2.21,1.56-4.4,2.36-6.51,2.25-5.94,4.53-11.18,6.26-13.97h0c1.45.13,2.88.65,4.26,1.46,1.9,1.11,3.72,2.76,5.43,4.69,3.2,3.62,5.97,8.22,8,12.05.4.76.77,1.48,1.11,2.17,1.56,3.13,2.46,5.35,2.46,5.35Z"/>
      <g>
        <g>
          <path class="cls-13" d="m132.78,270.34c-.53.69-1.29,1.19-2.17,1.37.71-.47,1.44-.92,2.17-1.37Z"/>
          <path class="cls-13" d="m147.31,268.09c0,2.05-1.66,3.71-3.71,3.71s-3.71-1.66-3.71-3.71c0-.82.27-1.57.71-2.18,1.03-.54,2.02-1.05,2.96-1.53h.04c2.05,0,3.71,1.66,3.71,3.71Z"/>
          <circle class="cls-13" cx="157.38" cy="268.09" r="3.71"/>
          <path class="cls-13" d="m174.86,268.09c0,2.05-1.66,3.71-3.71,3.71s-3.71-1.66-3.71-3.71,1.66-3.71,3.71-3.71,3.71,1.66,3.71,3.71Z"/>
          <path class="cls-13" d="m188.63,268.09c0,2.05-1.66,3.71-3.71,3.71s-3.71-1.66-3.71-3.71,1.66-3.71,3.71-3.71,3.71,1.66,3.71,3.71Z"/>
          <path class="cls-13" d="m201.3,270.74c-.67.66-1.59,1.06-2.6,1.06-2.05,0-3.71-1.66-3.71-3.71,0-.57.13-1.11.36-1.6,2.07,1.19,4.09,2.58,5.95,4.25Z"/>
        </g>
        <g>
          <path class="cls-13" d="m133.54,282.67c0,2.05-1.66,3.71-3.71,3.71s-3.71-1.66-3.71-3.71,1.66-3.71,3.71-3.71,3.71,1.66,3.71,3.71Z"/>
          <path class="cls-13" d="m147.31,282.67c0,2.05-1.66,3.71-3.71,3.71s-3.71-1.66-3.71-3.71,1.66-3.71,3.71-3.71,3.71,1.66,3.71,3.71Z"/>
          <path class="cls-13" d="m161.09,282.67c0,2.05-1.66,3.71-3.71,3.71s-3.71-1.66-3.71-3.71,1.66-3.71,3.71-3.71,3.71,1.66,3.71,3.71Z"/>
          <path class="cls-13" d="m174.86,282.67c0,2.05-1.66,3.71-3.71,3.71s-3.71-1.66-3.71-3.71,1.66-3.71,3.71-3.71,3.71,1.66,3.71,3.71Z"/>
          <path class="cls-13" d="m188.63,282.67c0,2.05-1.66,3.71-3.71,3.71s-3.71-1.66-3.71-3.71,1.66-3.71,3.71-3.71,3.71,1.66,3.71,3.71Z"/>
          <path class="cls-13" d="m202.41,282.67c0,2.05-1.66,3.71-3.71,3.71s-3.71-1.66-3.71-3.71,1.66-3.71,3.71-3.71,3.71,1.66,3.71,3.71Z"/>
          <path class="cls-13" d="m211.99,286.35c-1.82-.24-3.23-1.79-3.23-3.68,0-.47.09-.91.24-1.32.89,1.48,1.9,3.17,2.99,5Z"/>
        </g>
        <g>
          <path class="cls-13" d="m119.76,297.26c0,2.05-1.66,3.71-3.71,3.71-.93,0-1.78-.34-2.44-.91.76-2.21,1.56-4.4,2.36-6.51.03,0,.05,0,.08,0,2.05,0,3.71,1.66,3.71,3.71Z"/>
          <path class="cls-13" d="m133.54,297.26c0,2.05-1.66,3.71-3.71,3.71s-3.71-1.66-3.71-3.71,1.66-3.71,3.71-3.71,3.71,1.66,3.71,3.71Z"/>
          <path class="cls-13" d="m147.31,297.26c0,2.05-1.66,3.71-3.71,3.71s-3.71-1.66-3.71-3.71,1.66-3.71,3.71-3.71,3.71,1.66,3.71,3.71Z"/>
          <path class="cls-13" d="m161.09,297.26c0,2.05-1.66,3.71-3.71,3.71s-3.71-1.66-3.71-3.71,1.66-3.71,3.71-3.71,3.71,1.66,3.71,3.71Z"/>
          <path class="cls-13" d="m174.86,297.26c0,2.05-1.66,3.71-3.71,3.71s-3.71-1.66-3.71-3.71,1.66-3.71,3.71-3.71,3.71,1.66,3.71,3.71Z"/>
          <path class="cls-13" d="m188.63,297.26c0,2.05-1.66,3.71-3.71,3.71s-3.71-1.66-3.71-3.71,1.66-3.71,3.71-3.71,3.71,1.66,3.71,3.71Z"/>
          <path class="cls-13" d="m202.41,297.26c0,2.05-1.66,3.71-3.71,3.71s-3.71-1.66-3.71-3.71,1.66-3.71,3.71-3.71,3.71,1.66,3.71,3.71Z"/>
          <path class="cls-13" d="m216.18,297.26c0,2.05-1.66,3.71-3.71,3.71s-3.71-1.66-3.71-3.71,1.66-3.71,3.71-3.71,3.71,1.66,3.71,3.71Z"/>
        </g>
        <g>
          <path class="cls-13" d="m119.77,311.84c0,2.05-1.66,3.71-3.71,3.71s-3.71-1.66-3.71-3.71,1.66-3.71,3.71-3.71,3.71,1.66,3.71,3.71Z"/>
          <path class="cls-13" d="m133.54,311.84c0,2.05-1.66,3.71-3.71,3.71s-3.71-1.66-3.71-3.71,1.66-3.71,3.71-3.71,3.71,1.66,3.71,3.71Z"/>
          <path class="cls-13" d="m147.31,311.84c0,2.05-1.66,3.71-3.71,3.71s-3.71-1.66-3.71-3.71,1.66-3.71,3.71-3.71,3.71,1.66,3.71,3.71Z"/>
          <path class="cls-13" d="m161.09,311.84c0,2.05-1.66,3.71-3.71,3.71s-3.71-1.66-3.71-3.71,1.66-3.71,3.71-3.71,3.71,1.66,3.71,3.71Z"/>
          <path class="cls-13" d="m174.86,311.84c0,2.05-1.66,3.71-3.71,3.71s-3.71-1.66-3.71-3.71,1.66-3.71,3.71-3.71,3.71,1.66,3.71,3.71Z"/>
          <path class="cls-13" d="m188.63,311.84c0,2.05-1.66,3.71-3.71,3.71s-3.71-1.66-3.71-3.71,1.66-3.71,3.71-3.71,3.71,1.66,3.71,3.71Z"/>
          <path class="cls-13" d="m202.41,311.84c0,2.05-1.66,3.71-3.71,3.71s-3.71-1.66-3.71-3.71,1.66-3.71,3.71-3.71,3.71,1.66,3.71,3.71Z"/>
        </g>
        <g>
          <path class="cls-13" d="m133.54,326.43c0,1.62-1.05,3.01-2.5,3.51-.23-.93-.46-1.86-.69-2.78-.12-.45-.24-.91-.35-1.36-.05-.19-.1-.37-.15-.56-1.13-.18-2.2-.4-3.23-.66.54-.93,1.47-1.61,2.57-1.8.21-.04.42-.06.64-.06,1.79,0,3.28,1.27,3.63,2.95.05.25.08.5.08.76Z"/>
          <path class="cls-13" d="m147.31,326.43c0,2.05-1.66,3.71-3.71,3.71s-3.71-1.66-3.71-3.71,1.66-3.71,3.71-3.71,3.71,1.66,3.71,3.71Z"/>
          <path class="cls-13" d="m161.09,326.43c0,2.05-1.66,3.71-3.71,3.71s-3.71-1.66-3.71-3.71,1.66-3.71,3.71-3.71,3.71,1.66,3.71,3.71Z"/>
          <path class="cls-13" d="m174.86,326.43c0,2.05-1.66,3.71-3.71,3.71s-3.71-1.66-3.71-3.71,1.66-3.71,3.71-3.71,3.71,1.66,3.71,3.71Z"/>
          <path class="cls-13" d="m188.63,326.43c0,2.05-1.66,3.71-3.71,3.71s-3.71-1.66-3.71-3.71,1.66-3.71,3.71-3.71,3.71,1.66,3.71,3.71Z"/>
          <path class="cls-13" d="m202.41,326.43c0,2.05-1.66,3.71-3.71,3.71s-3.71-1.66-3.71-3.71,1.66-3.71,3.71-3.71,3.71,1.66,3.71,3.71Z"/>
        </g>
        <g>
          <path class="cls-13" d="m133.54,341.01v.02c-.1-.51-.21-1-.32-1.51.2.46.32.97.32,1.5Z"/>
          <path class="cls-13" d="m147.31,341.01c0,2.05-1.66,3.71-3.71,3.71s-3.71-1.66-3.71-3.71,1.66-3.71,3.71-3.71,3.71,1.66,3.71,3.71Z"/>
          <path class="cls-13" d="m161.09,341.01c0,2.05-1.66,3.71-3.71,3.71s-3.71-1.66-3.71-3.71,1.66-3.71,3.71-3.71,3.71,1.66,3.71,3.71Z"/>
          <path class="cls-13" d="m174.86,341.01c0,2.05-1.66,3.71-3.71,3.71s-3.71-1.66-3.71-3.71,1.66-3.71,3.71-3.71,3.71,1.66,3.71,3.71Z"/>
          <path class="cls-13" d="m188.63,341.01c0,2.05-1.66,3.71-3.71,3.71s-3.71-1.66-3.71-3.71,1.66-3.71,3.71-3.71,3.71,1.66,3.71,3.71Z"/>
          <path class="cls-13" d="m200.74,337.91c-.35,1.13-.63,2.3-.82,3.53-.14.92-.2,1.98-.19,3.13-.33.1-.67.15-1.03.15-2.05,0-3.71-1.66-3.71-3.71s1.66-3.71,3.71-3.71c.76,0,1.46.23,2.04.61Z"/>
        </g>
        <g>
          <path class="cls-13" d="m147.31,355.59c0,2.05-1.66,3.71-3.71,3.71s-3.71-1.66-3.71-3.71,1.66-3.71,3.71-3.71,3.71,1.66,3.71,3.71Z"/>
          <circle class="cls-13" cx="157.38" cy="355.59" r="3.71"/>
          <path class="cls-13" d="m174.86,355.59c0,2.05-1.66,3.71-3.71,3.71s-3.71-1.66-3.71-3.71,1.66-3.71,3.71-3.71,3.71,1.66,3.71,3.71Z"/>
          <path class="cls-13" d="m188.63,355.59c0,2.05-1.66,3.71-3.71,3.71s-3.71-1.66-3.71-3.71,1.66-3.71,3.71-3.71,3.71,1.66,3.71,3.71Z"/>
          <path class="cls-13" d="m201.56,357.96c-.68.82-1.71,1.35-2.87,1.35-2.05,0-3.71-1.66-3.71-3.71s1.66-3.71,3.71-3.71c.65,0,1.26.17,1.79.46.29,1.81.66,3.69,1.07,5.61Z"/>
        </g>
        <g>
          <path class="cls-13" d="m147.31,370.18c0,2.05-1.66,3.71-3.71,3.71s-3.71-1.66-3.71-3.71,1.66-3.71,3.71-3.71,3.71,1.66,3.71,3.71Z"/>
          <path class="cls-13" d="m161.09,370.18c0,2.05-1.66,3.71-3.71,3.71s-3.71-1.66-3.71-3.71,1.66-3.71,3.71-3.71,3.71,1.66,3.71,3.71Z"/>
          <path class="cls-13" d="m174.86,370.18c0,2.05-1.66,3.71-3.71,3.71s-3.71-1.66-3.71-3.71,1.66-3.71,3.71-3.71,3.71,1.66,3.71,3.71Z"/>
          <path class="cls-13" d="m188.63,370.18c0,2.05-1.66,3.71-3.71,3.71s-3.71-1.66-3.71-3.71,1.66-3.71,3.71-3.71,3.71,1.66,3.71,3.71Z"/>
          <path class="cls-13" d="m202.41,370.18c0,2.05-1.66,3.71-3.71,3.71s-3.71-1.66-3.71-3.71,1.66-3.71,3.71-3.71,3.71,1.66,3.71,3.71Z"/>
        </g>
        <g>
          <path class="cls-13" d="m147.31,384.76c0,2.05-1.66,3.71-3.71,3.71s-3.71-1.66-3.71-3.71,1.66-3.71,3.71-3.71,3.71,1.66,3.71,3.71Z"/>
          <path class="cls-13" d="m161.09,384.76c0,2.05-1.66,3.71-3.71,3.71s-3.71-1.66-3.71-3.71,1.66-3.71,3.71-3.71,3.71,1.66,3.71,3.71Z"/>
          <path class="cls-13" d="m174.86,384.76c0,2.05-1.66,3.71-3.71,3.71s-3.71-1.66-3.71-3.71,1.66-3.71,3.71-3.71,3.71,1.66,3.71,3.71Z"/>
          <path class="cls-13" d="m188.63,384.76c0,2.05-1.66,3.71-3.71,3.71s-3.71-1.66-3.71-3.71,1.66-3.71,3.71-3.71,3.71,1.66,3.71,3.71Z"/>
          <path class="cls-13" d="m202.41,384.76c0,2.05-1.66,3.71-3.71,3.71s-3.71-1.66-3.71-3.71,1.66-3.71,3.71-3.71,3.71,1.66,3.71,3.71Z"/>
          <path class="cls-13" d="m209.8,386.42c-.14.13-.29.25-.43.38-.38-.58-.61-1.28-.61-2.03,0-.34.05-.68.13-.99.56,1.68.91,2.65.91,2.65Z"/>
        </g>
      </g>
      <path class="cls-3" d="m192.55,369.73c-23.28,2.35-45.07-13.69-45.31-13.87-.29-.22-.35-.62-.13-.91.22-.29.62-.35.91-.13.25.18,24.81,18.25,49.3,12.83.35-.08.7.14.78.49.08.35-.14.7-.49.78-1.69.37-3.37.64-5.05.81Z"/>
      <path class="cls-3" d="m191.37,364.55c-11.26-1.02-21.09-6.6-28.51-12.44-.45-.35-1.1,0-1.04.57h0c.02.18.1.34.24.44,6.45,5.08,14.69,9.96,24.13,11.95,1.64.35,3.31.6,5.02.76.34.03.67-.19.74-.52.07-.38-.2-.74-.58-.77Z"/>
      <path class="cls-3" d="m174.67,274.1c-11.16,1.13-22.16-4.56-22.7-4.85-.32-.17-.44-.56-.27-.88.17-.32.56-.44.88-.27.15.08,15.31,7.92,27.6,3.45.34-.12.71.05.83.39.12.34-.05.71-.39.83-1.95.71-3.96,1.13-5.96,1.33Z"/>
      <path class="cls-3" d="m170.67,281.97c-4.99.5-9.46-.26-9.75-.31-.35-.06-.59-.4-.53-.75.06-.35.4-.59.75-.53.1.02,10.11,1.72,16.6-1.65.32-.16.71-.04.88.28.17.32.04.71-.28.88-2.35,1.22-5.08,1.83-7.68,2.09Z"/>
      <path class="cls-3" d="m146.41,299.33l-6.58,27.13c-.06.25-.26.44-.51.49-.58.11-1.39.26-2.46.37-1.6.16-3.77.21-6.52-.16-.12-.45-.24-.91-.35-1.36,4.26.65,7.12.23,8.68-.05l6.48-26.72c.08-.35.44-.56.78-.48.35.09.56.44.48.79Z"/>
      <path class="cls-3" d="m143.29,310.36c-.16.02-.32-.03-.46-.13-.29-.22-.34-.62-.13-.91l6.25-8.26c.22-.29.62-.34.91-.13.29.22.34.62.13.91l-6.25,8.26c-.11.15-.28.24-.45.25Z"/>
      <g>
        <g>
          <path class="cls-17" d="m179.25,262.67s-.65,5.53-8.68,5.79c-9.61.32-18.12-7.02-18.12-7.02,2.13-5.62,3.31-13.73,3.48-18.86.09-2.59.02-4.3.02-4.3h0s23.74,12.62,23.74,12.62l-.24,6.33-.12,3.12-.09,2.31Z"/>
          <path class="cls-15" d="m179.46,257.24c-12.97-2.11-20.8-10.48-23.48-16.02.08-2.42,0-2.89-.01-2.93l23.74,12.62-.24,6.33Z"/>
        </g>
        <path class="cls-11" d="m195.27,218.77s1.97-4.94,6.87-3.57c4.9,1.37,3.27,21.92-8.87,19.48l2-15.92Z"/>
        <path class="cls-3" d="m195.84,241.24c-3.5,0-6.35-2.85-6.35-6.35s2.85-6.35,6.35-6.35,6.35,2.85,6.35,6.35-2.85,6.35-6.35,6.35Zm0-11.28c-2.72,0-4.93,2.21-4.93,4.93s2.21,4.93,4.93,4.93,4.93-2.21,4.93-4.93-2.21-4.93-4.93-4.93Z"/>
        <path class="cls-17" d="m201.49,226.71c-.02.1-.04.21-.05.31-.17.94-.36,1.88-.57,2.85-.01.05-.02.11-.04.16-.27,1.24-.57,2.49-.91,3.75-.29,1.08-.56,2.17-.95,3.23-4.6,12.57-13.9,17.01-25.03,14.39-20.46-4.82-25.42-25.99-26.55-37.79-.4-4.24-.33-7.03-.33-7.03,1.49-15.36,19.74-25.69,33.81-22.92,19.72,3.89,21.94,16.13,22.13,25.57.02,1.03.02,2.03.01,2.98-.02,2.84-.41,8.33-1.53,14.52Z"/>
        <path class="cls-11" d="m183.39,244.45c.26.09.44.34.45.63,0,.38-.29.69-.67.7-2.88.05-4.39-.61-4.45-.64-.34-.16-.5-.56-.34-.91.16-.34.56-.5.9-.34.03.01,1.34.57,3.86.52.09,0,.17.01.25.04Z"/>
        <path class="cls-3" d="m172.98,233.89s11.97,2.18,18.77,1.63c0,0-1.63,8.43-11.15,6.8-7.22-1.24-7.62-8.43-7.62-8.43Z"/>
        <path class="cls-15" d="m178.4,210.98c.28-.07.53-.26.68-.53.29-.53.1-1.19-.43-1.49-2.08-1.15-6.84-2.23-9.96,1.87-.37.48-.27,1.17.21,1.54.48.37,1.17.27,1.54-.21,2.75-3.61,6.98-1.38,7.16-1.28.26.14.55.17.81.1Z"/>
        <path class="cls-15" d="m198.69,217.48c.24.16.55.22.85.14.59-.14.95-.73.81-1.32-.55-2.31-2.95-6.56-8.08-6.12-.6.05-1.05.58-1,1.19.05.6.58,1.05,1.19,1,4.52-.39,5.71,4.24,5.76,4.44.07.28.24.52.47.66Z"/>
        <path class="cls-15" d="m199.3,208.05s-.14,3.1,1.59,6.01c.89,1.51,1.43,3.2,1.44,4.95l.02,2.14s2.23-8.52.67-11.93l-3.72-1.17Z"/>
        <path class="cls-11" d="m172.02,223.57c-.09.91-2.63,1.4-5.68,1.1-3.04-.31-5.44-1.29-5.34-2.2.09-.91,2.63-1.4,5.68-1.1,3.04.31,5.44,1.29,5.34,2.2Z"/>
        <path class="cls-11" d="m201.49,226.71c-.02.1-.04.21-.05.31-.17.94-.36,1.88-.57,2.85-.46-.02-.95-.07-1.45-.13-3.34-.4-6-1.47-5.92-2.39.07-.91,2.84-1.33,6.18-.94.63.08,1.24.18,1.81.3Z"/>
        <path class="cls-15" d="m176.14,218.62c-.16,1.63-1.02,2.88-1.91,2.79-.89-.09-1.48-1.49-1.31-3.12.16-1.63,1.02-2.88,1.91-2.79.89.09,1.48,1.49,1.32,3.12Z"/>
        <path class="cls-15" d="m195.81,220.74c-.16,1.63-1.02,2.88-1.91,2.79-.89-.09-1.48-1.49-1.31-3.12.16-1.63,1.02-2.88,1.91-2.79.89.09,1.48,1.49,1.32,3.12Z"/>
        <path class="cls-11" d="m182.26,231.78c-.54-.06-.94-.53-.9-1.07.04-.56.52-.98,1.07-.94.82.06,1.5.06,1.99.04-.02-3.16-.71-7.49-.72-7.54-.09-.55.29-1.07.84-1.16.55-.09,1.07.29,1.16.84.04.22.87,5.49.73,8.85-.02.49-.39.9-.88.96-.05,0-1.28.16-3.24.03-.01,0-.02,0-.04,0Z"/>
        <path class="cls-15" d="m158.88,209.68c-1.44,5,.24,15.45-2.91,15.13-3.15-.32-4.12-11.73-4.12-11.73l-4.45.53c-.4-4.24-.33-7.03-.33-7.03,1.49-15.36,19.74-25.69,33.81-22.92,19.72,3.89,21.94,16.13,22.13,25.57l-3.71-1.17c-8.24-1.96-5.78-12.6-5.78-12.6-1.98,6.84-27.17,13.3-34.64,14.23Z"/>
        <g>
          <path class="cls-17" d="m152.14,213.66s-2.38-5.7-8.04-4.01c-5.66,1.69-3.38,25.52,10.66,22.45l-2.62-18.44Z"/>
          <path class="cls-3" d="m154.92,237.66c-1.13,1.73-3.09,2.87-5.31,2.87-3.5,0-6.35-2.85-6.35-6.35,0-3.31,2.55-6.04,5.79-6.32.07.47.05.94.04,1.42-2.47.26-4.41,2.36-4.41,4.9,0,2.72,2.21,4.93,4.93,4.93,1.97,0,3.68-1.17,4.47-2.84.27.47.55.93.84,1.39Z"/>
          <path class="cls-11" d="m149.53,225.36s-.01,0-.02,0c-.55-.07-.95-.57-.88-1.12.74-6.3-3.85-9.59-3.89-9.62-.46-.32-.57-.95-.25-1.41.32-.46.95-.57,1.41-.25.23.16,5.62,4.03,4.74,11.51-.06.55-.56.94-1.1.89Z"/>
          <path class="cls-11" d="m145.05,220.55c-.41-.04-.77-.33-.88-.76-.14-.54.19-1.09.73-1.23.32-.08,3.21-.76,5.05.59.45.33.54.96.21,1.41-.33.45-.96.54-1.41.21-.91-.67-2.77-.4-3.35-.26-.12.03-.24.04-.35.03Z"/>
        </g>
      </g>
      <g>
        <path class="cls-3" d="m173.84,230.34c-5.23,0-9.48-4.25-9.48-9.48s4.25-9.48,9.48-9.48,9.48,4.25,9.48,9.48-4.25,9.48-9.48,9.48Zm0-17.75c-4.56,0-8.27,3.71-8.27,8.27s3.71,8.27,8.27,8.27,8.27-3.71,8.27-8.27-3.71-8.27-8.27-8.27Z"/>
        <path class="cls-3" d="m166.51,216.98c-.12.12-.27.18-.43.18s-.3-.06-.42-.17c-.07-.07-5.14-4.88-14.05-4.3-.21-.34-.5-.74-.85-1.14,9.96-.98,15.51,4.34,15.75,4.57.24.23.24.61,0,.85Z"/>
        <path class="cls-3" d="m195.82,231.51c-5.23,0-9.48-4.25-9.48-9.48s4.25-9.48,9.48-9.48,9.48,4.25,9.48,9.48-4.25,9.48-9.48,9.48Zm0-17.75c-4.56,0-8.27,3.71-8.27,8.27s3.71,8.27,8.27,8.27,8.27-3.71,8.27-8.27-3.71-8.27-8.27-8.27Z"/>
        <path class="cls-3" d="m187.15,220.72c-.21,0-.42-.11-.53-.32-.02-.04-.59-1.02-1.77-1.12-1.09-.09-1.69.81-1.7.82-.18.28-.56.36-.83.17-.28-.18-.36-.56-.17-.83.04-.06,1.01-1.5,2.8-1.35,1.85.16,2.69,1.68,2.73,1.75.16.29.05.66-.24.82-.09.05-.19.07-.29.07Z"/>
      </g>
      <path class="cls-15" d="m212.67,392.49c-1.79-3.85-2.86-6.07-2.86-6.07-4.86,2.44-9.61,4.44-14.23,6.07h17.09Z"/>
      <g>
        <path class="cls-17" d="m134.85,325.75s-.01.07-.02.11c-.07.39-.14.78-.21,1.18-.14.76-.28,1.52-.43,2.31,0,.04-.02.08-.02.11h0c-1.75,9.4-4.05,20.46-6.55,29.24,0,.02-.01.04-.02.06-.2.68-.39,1.36-.59,2.02,0,0,0,.01,0,.02,0,0,0,.01,0,.02,0,.03-.02.06-.03.08-1.68,5.57-3.44,9.96-5.17,12-4.8,5.66-13.17,6.66-17.36-1.1-2.43-4.49-3.46-11.92-1.6-23.07,1.73-10.32,4.31-20.97,6.97-30.52.11-.39.21-.77.32-1.15.14-.5.28-.99.42-1.48,2.25,2.36,7.44,6.85,16.05,9,1.03.26,2.1.48,3.23.66,1.15.19,2.36.33,3.62.43.46.03.92.06,1.39.08Z"/>
        <path class="cls-17" d="m176.6,393s-37.22-2.28-52.92-6.58c-15.7-4.3-19.23-14.62-19.23-14.62h0c0-.19.08-6.7,7.33-9.43,1.45-.55,2.87-.97,4.27-1.28,3.79-.84,7.42-.86,10.95-.28.22.04.45.08.67.12,7.04,1.3,13.67,4.91,20.31,9.04,11.39,7.09,31.65,11.39,31.65,11.39,4.56,5.32-3.04,11.65-3.04,11.65Z"/>
        <path class="cls-15" d="m127.63,358.69s-.01.04-.02.06c-.2.68-.39,1.36-.59,2.02,0,0,0,.01,0,.02-2.91-.04-9.16.18-13.47,1.94.07-.05,1.09-.77,2.86-1.59,2.47-1.14,6.4-2.48,11.22-2.45Z"/>
        <path class="cls-17" d="m179.63,381.35s12.81-4.12,21.41-1.89c8.6,2.24,11.62,13.03,11.62,13.03l-33.04-.02s-4.71-9.89,0-11.12Z"/>
        <path class="cls-15" d="m134.85,325.75s-.01.07-.02.11c-.07.39-.14.78-.21,1.18-.14.76-.28,1.52-.43,2.31,0,.04-.02.08-.02.11-7.77-.07-20.72-7.84-24.35-11.25.11-.39.21-.77.32-1.15.14-.5.28-.99.42-1.48,2.25,2.36,7.44,6.85,16.05,9,1.03.26,2.1.48,3.23.66,1.15.19,2.36.33,3.62.43.46.03.92.06,1.39.08Z"/>
      </g>
    </g>
    <rect class="cls-15" x="20.05" y="392.47" width="464.47" height="5.53" rx="1.79" ry="1.79"/>
    <g>
      <rect class="cls-8" x="170.27" y="384.59" width="131.94" height="7.88" rx="2.56" ry="2.56"/>
      <path class="cls-10" d="m345.38,320.24l-16.34,69.09c-.44,1.84-2.08,3.14-3.97,3.14h-100.63c-2.63,0-4.58-2.46-3.97-5.02l16.34-69.09c.44-1.84,2.08-3.14,3.97-3.14h100.63c2.63,0,4.58,2.46,3.97,5.02Z"/>
      <path class="cls-8" d="m244.76,315.22l-17.39,77.25h-2.93c-2.63,0-4.58-2.46-3.97-5.02l16.34-69.09c.44-1.84,2.08-3.14,3.97-3.14h3.99Z"/>
      <circle class="cls-8" cx="288.01" cy="357.97" r="7.65" transform="translate(-126.72 555.71) rotate(-76.67)"/>
      <path class="cls-3" d="m222.82,376.03s-.06,0-.09-.01c-.2-.05-.33-.25-.28-.46l13.15-55.6c.05-.2.25-.33.46-.28.2.05.33.25.28.46l-13.15,55.6c-.04.17-.2.29-.37.29Z"/>
    </g>
    <g>
      <path class="cls-9" d="m44.89,357.74c-.37,0-.68-.3-.68-.68v-44.28c0-.37.3-.68.68-.68s.68.3.68.68v44.28c0,.37-.3.68-.68.68Z"/>
      <g>
        <polygon class="cls-4" points="53.98 392.47 54.82 389.37 54.95 388.86 55.6 386.46 55.74 385.95 62.16 362.14 62.3 361.63 62.94 359.24 63.08 358.73 63.8 356.07 25.99 356.07 26.71 358.73 26.84 359.24 27.49 361.63 27.63 362.14 34.05 385.95 34.19 386.46 34.84 388.86 34.97 389.37 35.81 392.47 53.98 392.47"/>
        <polygon class="cls-14" points="63.08 358.73 62.94 359.24 26.84 359.24 26.71 358.73 63.08 358.73"/>
        <polygon class="cls-14" points="62.3 361.63 62.16 362.14 27.63 362.14 27.49 361.63 62.3 361.63"/>
        <polygon class="cls-14" points="55.74 385.95 55.6 386.46 34.19 386.46 34.05 385.95 55.74 385.95"/>
        <polygon class="cls-14" points="54.95 388.86 54.82 389.37 34.97 389.37 34.84 388.86 54.95 388.86"/>
      </g>
      <g>
        <path class="cls-6" d="m47.32,322.45c-.82.2-1.61-.14-2.05-.76-.15-.21-.27-.45-.32-.72-.03-.14-.05-.27-.05-.42,0-.46.16-.9.45-1.25,2.59-3.14,15.7-18.3,21.85-11.96,7.43,7.66-12.71,13.37-19.88,15.12Z"/>
        <path class="cls-9" d="m58.92,313.61l-13.65,8.08c-.15-.21-.27-.45-.32-.72l13.57-8.03c.19-.11.43-.05.54.14.11.19.05.43-.14.54Z"/>
      </g>
      <g>
        <path class="cls-6" d="m44.9,328.05c0,.15-.01.28-.05.42-.06.27-.17.51-.32.72-.44.62-1.24.96-2.06.76-7.16-1.74-27.31-7.45-19.88-15.12,6.14-6.34,19.26,8.82,21.85,11.96.29.35.45.8.45,1.25Z"/>
        <path class="cls-9" d="m44.85,328.47c-.06.27-.17.51-.32.72l-13.65-8.08c-.18-.11-.25-.35-.14-.54.11-.19.35-.25.54-.14l13.58,8.03Z"/>
      </g>
      <g>
        <path class="cls-6" d="m46.39,312.67c-.06.45-.26.88-.59,1.19-.1.1-.22.18-.33.26-.23.14-.49.23-.75.26-.76.1-1.55-.24-1.97-.96-3.68-6.39-13.44-24.91-2.76-24.82,8.83.08,6.89,20.03,6.41,24.07Z"/>
        <path class="cls-9" d="m45.46,314.12c-.23.14-.49.23-.75.26l-3.57-15.46c-.05-.21.08-.42.29-.47.21-.05.42.08.47.3l3.55,15.37Z"/>
      </g>
      <g>
        <path class="cls-6" d="m47.32,338.56c-.82.2-1.61-.14-2.05-.76-.15-.21-.27-.45-.32-.72-.03-.14-.05-.27-.05-.42,0-.45.16-.9.45-1.25,2.59-3.14,15.7-18.3,21.85-11.96,7.43,7.66-12.71,13.37-19.88,15.12Z"/>
        <path class="cls-9" d="m58.92,329.72l-13.65,8.07c-.15-.21-.27-.45-.32-.72l13.57-8.03c.19-.11.43-.05.54.14.11.19.05.43-.14.54Z"/>
      </g>
      <g>
        <path class="cls-6" d="m44.9,344.16c0,.15-.01.28-.05.42-.06.27-.17.51-.32.73-.45.62-1.24.96-2.06.76-7.16-1.74-27.31-7.45-19.88-15.12,6.14-6.34,19.26,8.82,21.85,11.96.29.35.45.8.45,1.25Z"/>
        <path class="cls-9" d="m44.85,344.58c-.06.27-.17.51-.32.73l-13.65-8.08c-.18-.11-.25-.35-.14-.54.11-.18.35-.25.54-.14l13.58,8.03Z"/>
      </g>
      <g>
        <path class="cls-6" d="m47.32,353.73c-.82.2-1.61-.14-2.05-.76-.15-.21-.27-.45-.32-.72-.03-.14-.05-.27-.05-.42,0-.46.16-.9.45-1.25,2.59-3.14,15.7-18.3,21.85-11.96,7.43,7.66-12.71,13.37-19.88,15.12Z"/>
        <path class="cls-9" d="m58.92,344.89l-13.65,8.08c-.15-.21-.27-.45-.32-.72l13.57-8.03c.19-.11.43-.05.54.14.11.19.05.43-.14.54Z"/>
      </g>
    </g>
    <g>
      <g>
        <path class="cls-10" d="m124.49,369.15h1.4v-2.09h-52.87c-1.75,0-3.34.71-4.49,1.86-1.15,1.15-1.86,2.73-1.86,4.49,0,3.51,2.84,6.35,6.35,6.35h52.87v-1.81h-1.4v-8.8Z"/>
        <path class="cls-3" d="m124.85,369.15v8.8h-48.51c-2.37,0-4.29-1.97-4.29-4.4,0-1.22.48-2.31,1.25-3.11.78-.8,1.85-1.29,3.03-1.29h48.51Z"/>
        <path class="cls-7" d="m124.85,371.38v1.35h-47.26c-.37,0-.67-.3-.67-.67h0c0-.37.3-.67.67-.67h47.26Z"/>
        <path class="cls-7" d="m124.85,374.69v1.35h-47.26c-.37,0-.67-.3-.67-.67h0c0-.37.3-.67.67-.67h47.26Z"/>
      </g>
      <g>
        <path class="cls-10" d="m451.27,381.86h1.4v-2.09h-52.87c-1.75,0-3.34.71-4.49,1.86-1.15,1.15-1.86,2.73-1.86,4.49,0,3.51,2.84,6.35,6.35,6.35h52.87v-1.81h-1.4v-8.8Z"/>
        <path class="cls-3" d="m451.63,381.86v8.8h-48.51c-2.37,0-4.29-1.97-4.29-4.4,0-1.22.48-2.31,1.25-3.11.78-.8,1.85-1.29,3.03-1.29h48.51Z"/>
        <path class="cls-7" d="m451.63,384.09v1.35h-47.26c-.37,0-.67-.3-.67-.67h0c0-.37.3-.67.67-.67h47.26Z"/>
        <path class="cls-7" d="m451.63,387.4v1.35h-47.26c-.37,0-.67-.3-.67-.67h0c0-.37.3-.67.67-.67h47.26Z"/>
      </g>
      <g>
        <path class="cls-2" d="m443.6,369.17h1.4v-2.09h-52.87c-1.75,0-3.34.71-4.49,1.86-1.15,1.15-1.86,2.73-1.86,4.49,0,3.51,2.84,6.35,6.35,6.35h52.87v-1.81h-1.4v-8.8Z"/>
        <path class="cls-3" d="m443.96,369.17v8.8h-48.51c-2.37,0-4.29-1.97-4.29-4.4,0-1.22.48-2.31,1.25-3.11.78-.8,1.85-1.29,3.03-1.29h48.51Z"/>
        <path class="cls-7" d="m443.96,371.4v1.35h-47.26c-.37,0-.67-.3-.67-.67h0c0-.37.3-.67.67-.67h47.26Z"/>
        <path class="cls-7" d="m443.96,374.71v1.35h-47.26c-.37,0-.67-.3-.67-.67h0c0-.37.3-.67.67-.67h47.26Z"/>
      </g>
      <g>
        <path class="cls-12" d="m446.35,356.52h1.4v-2.09h-52.87c-1.75,0-3.34.71-4.49,1.86-1.15,1.15-1.86,2.73-1.86,4.49,0,3.51,2.84,6.35,6.35,6.35h52.87v-1.81h-1.4v-8.8Z"/>
        <path class="cls-3" d="m446.72,356.52v8.8h-48.51c-2.37,0-4.29-1.97-4.29-4.4,0-1.22.48-2.31,1.25-3.11.78-.79,1.85-1.29,3.03-1.29h48.51Z"/>
        <path class="cls-7" d="m446.72,358.75v1.35h-47.26c-.37,0-.67-.3-.67-.67h0c0-.37.3-.67.67-.67h47.26Z"/>
        <path class="cls-7" d="m446.72,362.06v1.35h-47.26c-.37,0-.67-.3-.67-.67h0c0-.37.3-.67.67-.67h47.26Z"/>
      </g>
      <g>
        <path class="cls-12" d="m117.71,381.84h1.4v-2.09h-52.87c-1.75,0-3.34.71-4.49,1.86-1.15,1.15-1.86,2.73-1.86,4.49,0,3.51,2.84,6.35,6.35,6.35h52.87v-1.81h-1.4v-8.8Z"/>
        <path class="cls-3" d="m118.07,381.84v8.8h-48.51c-2.37,0-4.29-1.97-4.29-4.4,0-1.22.48-2.31,1.25-3.11.78-.8,1.85-1.29,3.03-1.29h48.51Z"/>
        <path class="cls-7" d="m118.07,384.07v1.35h-47.26c-.37,0-.67-.3-.67-.67h0c0-.37.3-.67.67-.67h47.26Z"/>
        <path class="cls-7" d="m118.07,387.39v1.35h-47.26c-.37,0-.67-.3-.67-.67h0c0-.37.3-.67.67-.67h47.26Z"/>
      </g>
    </g>
    <g>
      <path class="cls-6" d="m276.79,171.85v19.89c0,2.63-2.13,4.76-4.76,4.76h-36.11l-10.9,3.91c-1.12.4-2.19-.7-1.76-1.81l4.12-10.65v-16.11c0-2.63,2.13-4.76,4.76-4.76h39.89c2.63,0,4.76,2.13,4.76,4.76Z"/>
      <path class="cls-6" d="m271.08,199.4h-30.58c-.21,0-.38-.17-.38-.38s.17-.38.38-.38h30.58c.21,0,.38.17.38.38s-.17.38-.38.38Z"/>
      <g>
        <path class="cls-9" d="m245.42,182.36c0,1.9-1.54,3.45-3.44,3.45s-3.44-1.54-3.44-3.45,1.54-3.44,3.44-3.44,3.44,1.54,3.44,3.44Z"/>
        <path class="cls-9" d="m256.33,182.36c0,1.9-1.54,3.45-3.44,3.45s-3.44-1.54-3.44-3.45,1.54-3.44,3.44-3.44,3.44,1.54,3.44,3.44Z"/>
        <path class="cls-9" d="m267.23,182.36c0,1.9-1.54,3.45-3.45,3.45s-3.45-1.54-3.45-3.45,1.54-3.44,3.45-3.44,3.45,1.54,3.45,3.44Z"/>
      </g>
    </g>
    <g>
      <g>
        <path class="cls-1" d="m267.82,266.58l-7.51,35.07c-.32,1.52-1.64,2.63-3.17,2.71-.06,0-.13,0-.19,0l-18.53-.03c-2.18,0-3.81-2.02-3.35-4.15l7.51-35.07c.34-1.59,1.74-2.72,3.37-2.72h3.08s15.45.03,15.45.03c2.18,0,3.81,2.02,3.35,4.15Z"/>
        <path class="cls-15" d="m267.82,266.58l-7.51,35.07c-.32,1.52-1.64,2.63-3.17,2.71l-15.45-.02c-2.18,0-3.81-2.02-3.35-4.15l7.51-35.07c.32-1.52,1.64-2.63,3.17-2.71l15.45.02c2.18,0,3.81,2.02,3.35,4.15Z"/>
        <path class="cls-15" d="m262.61,297.7s-.05,0-.08,0c-.2-.04-.34-.25-.29-.45l5.84-27.27c.04-.2.25-.33.45-.29.2.04.34.25.29.45l-5.84,27.27c-.04.18-.2.3-.37.3Z"/>
        <path class="cls-1" d="m257.68,282.53c0,1.92-1.56,3.48-3.48,3.48s-3.48-1.56-3.48-3.48,1.56-3.48,3.48-3.48,3.48,1.56,3.48,3.48Z"/>
      </g>
      <g>
        <g>
          <rect class="cls-4" x="240.27" y="225.39" width="20.13" height="26.99" rx="2.41" ry="2.41" transform="translate(9.15 487.02) rotate(-89.47)"/>
          <path class="cls-3" d="m256.07,240.11c-.14.19-.29.38-.43.55-.03.04-.07.08-.11.12-.96,1.06-2.45,2.05-3.99,3.09-.06.04-.13.09-.19.13-.34.23-.68.46-1.02.69-1.99-1.4-4.11-2.66-5.29-4.05-.65-.76-1.32-1.78-1.3-3.12.02-1.01.27-1.85,1.02-2.58.68-.66,1.51-.74,2.3-.74.03,0,.05,0,.08,0,.1,0,.2.02.29.03.74.08,1.36.32,2.23,1.2l.7.83.7-.83c.43-.48.91-.82,1.45-1.02,0,0,0,0,0,0,.33-.12.68-.18,1.07-.2.03,0,.05,0,.08,0,.78,0,1.62.1,2.29.75.76.72.99,1.58,1,2.59.01,1.04-.4,1.89-.88,2.57Z"/>
        </g>
        <path class="cls-4" d="m248.2,248.94l4.11,7.05c.18.3.64.23.71-.11l1.48-6.88-6.3-.06Z"/>
      </g>
    </g>
    <g>
      <path class="cls-14" d="m375.27,385.53h-10v-18.15h10c3,0,5.45,2.44,5.45,5.45v7.25c0,3-2.44,5.45-5.45,5.45Zm-6.39-3.61h6.39c1.01,0,1.84-.82,1.84-1.84v-7.25c0-1.01-.82-1.84-1.84-1.84h-6.39v10.93Z"/>
      <g>
        <path class="cls-4" d="m372.47,359.95v30.54c0,.24-.04.47-.12.69-.28.75-1,1.29-1.85,1.29h-23.64c-.85,0-1.57-.54-1.85-1.29-.08-.21-.12-.45-.12-.69v-30.54c0-1.09.88-1.98,1.98-1.98h23.64c1.09,0,1.98.88,1.98,1.98Z"/>
        <g>
          <g>
            <path class="cls-14" d="m346.78,362.2c0,1.05-.86,1.91-1.91,1.91v-3.81c1.05,0,1.91.85,1.91,1.91Z"/>
            <circle class="cls-14" cx="351.77" cy="362.2" r="1.91"/>
            <circle class="cls-14" cx="358.67" cy="362.2" r="1.91"/>
            <path class="cls-14" d="m367.47,362.2c0,1.05-.85,1.91-1.91,1.91s-1.91-.85-1.91-1.91.85-1.91,1.91-1.91,1.91.85,1.91,1.91Z"/>
            <path class="cls-14" d="m372.47,360.29v3.81c-1.05,0-1.91-.85-1.91-1.91s.86-1.91,1.91-1.91Z"/>
          </g>
          <g>
            <path class="cls-14" d="m346.78,368.97c0,1.05-.86,1.91-1.91,1.91v-3.81c1.05,0,1.91.85,1.91,1.91Z"/>
            <circle class="cls-14" cx="351.77" cy="368.97" r="1.91"/>
            <circle class="cls-14" cx="358.67" cy="368.97" r="1.91"/>
            <path class="cls-14" d="m367.47,368.97c0,1.05-.85,1.91-1.91,1.91s-1.91-.85-1.91-1.91.85-1.91,1.91-1.91,1.91.85,1.91,1.91Z"/>
            <path class="cls-14" d="m372.47,367.06v3.81c-1.05,0-1.91-.85-1.91-1.91s.86-1.91,1.91-1.91Z"/>
          </g>
          <g>
            <path class="cls-14" d="m346.78,375.74c0,1.05-.86,1.91-1.91,1.91v-3.81c1.05,0,1.91.85,1.91,1.91Z"/>
            <circle class="cls-14" cx="351.77" cy="375.74" r="1.91"/>
            <circle class="cls-14" cx="358.67" cy="375.74" r="1.91"/>
            <path class="cls-14" d="m367.47,375.74c0,1.05-.85,1.91-1.91,1.91s-1.91-.85-1.91-1.91.85-1.91,1.91-1.91,1.91.85,1.91,1.91Z"/>
            <path class="cls-14" d="m372.47,373.83v3.81c-1.05,0-1.91-.85-1.91-1.91s.86-1.91,1.91-1.91Z"/>
          </g>
          <g>
            <path class="cls-14" d="m346.78,382.51c0,1.05-.86,1.91-1.91,1.91v-3.81c1.05,0,1.91.85,1.91,1.91Z"/>
            <path class="cls-14" d="m353.68,382.51c0,1.05-.85,1.91-1.91,1.91s-1.91-.85-1.91-1.91.85-1.91,1.91-1.91,1.91.85,1.91,1.91Z"/>
            <path class="cls-14" d="m360.58,382.51c0,1.05-.85,1.91-1.91,1.91s-1.91-.85-1.91-1.91.85-1.91,1.91-1.91,1.91.85,1.91,1.91Z"/>
            <path class="cls-14" d="m367.47,382.51c0,1.05-.85,1.91-1.91,1.91s-1.91-.85-1.91-1.91.85-1.91,1.91-1.91,1.91.85,1.91,1.91Z"/>
            <path class="cls-14" d="m372.47,380.6v3.81c-1.05,0-1.91-.85-1.91-1.91s.86-1.91,1.91-1.91Z"/>
          </g>
          <g>
            <path class="cls-14" d="m346.78,389.28c0,1.01-.79,1.84-1.78,1.9-.08-.21-.12-.45-.12-.69v-3.12c1.05,0,1.91.85,1.91,1.91Z"/>
            <circle class="cls-14" cx="351.77" cy="389.28" r="1.91"/>
            <circle class="cls-14" cx="358.67" cy="389.28" r="1.91"/>
            <path class="cls-14" d="m367.47,389.28c0,1.05-.85,1.91-1.91,1.91s-1.91-.85-1.91-1.91.85-1.91,1.91-1.91,1.91.85,1.91,1.91Z"/>
            <path class="cls-14" d="m372.47,387.37v3.12c0,.24-.04.47-.12.69-1-.06-1.78-.89-1.78-1.9s.86-1.91,1.91-1.91Z"/>
          </g>
        </g>
      </g>
    </g>
    <g>
      <g>
        <circle class="cls-4" cx="397.8" cy="293.54" r="43.8" transform="translate(-75.95 152.21) rotate(-19.81)"/>
        <path class="cls-4" d="m350.56,294.47c-.21,0-.38-.17-.38-.38,0-26.51,21.56-48.07,48.07-48.07.21,0,.38.17.38.38s-.17.38-.38.38c-26.09,0-47.31,21.22-47.31,47.31,0,.21-.17.38-.38.38Z"/>
        <circle class="cls-3" cx="397.8" cy="293.54" r="34.62" transform="translate(-75.4 436.7) rotate(-53.26)"/>
        <circle class="cls-4" cx="397.8" cy="293.54" r="25.44" transform="translate(-94.69 250.33) rotate(-31.41)"/>
        <path class="cls-3" d="m402.19,309.19c-8.63,2.42-17.62-2.63-20.04-11.26-2.42-8.63,2.63-17.62,11.26-20.04,8.63-2.42,17.62,2.63,20.04,11.26,2.42,8.63-2.63,17.62-11.26,20.04Z"/>
        <path class="cls-4" d="m399.71,300.35c-3.76,1.05-7.67-1.15-8.72-4.9-1.05-3.76,1.15-7.67,4.9-8.72s7.67,1.15,8.72,4.9c1.05,3.76-1.15,7.67-4.9,8.72Z"/>
      </g>
      <path class="cls-15" d="m446.81,266.56l-10.57-1.61,1.61-10.57c.09-.61-.33-1.18-.94-1.28-.61-.09-1.18.33-1.28.94l-1.74,11.43-4.06,2.99,1.4-9.21c.09-.61-.33-1.18-.94-1.28-.61-.09-1.18.33-1.28.94l-1.74,11.43-5.13,3.77,1.4-9.21c.09-.61-.33-1.18-.94-1.28-.61-.09-1.18.33-1.28.94l-1.74,11.43-21.62,15.91c-.49,1.26-.31,2.07,0,2.78l23.18-17.06,11.02,1.68c.61.09,1.18-.33,1.28-.94.09-.61-.33-1.18-.94-1.28l-8.8-1.34,5.13-3.77,11.02,1.68c.61.09,1.18-.33,1.28-.94.09-.61-.33-1.18-.94-1.28l-8.8-1.34,4.06-2.99,11.02,1.68c.61.09,1.18-.33,1.28-.94.09-.61-.33-1.18-.94-1.28Z"/>
    </g>
    <g>
      <rect class="cls-12" x="273.43" y="207.39" width="102.63" height="21.21" rx="3.05" ry="3.05"/>
      <path class="cls-12" d="m277.84,228.6l1.79,8.3c.1.48.74.58.98.16l4.93-8.46h-7.71Z"/>
      <rect class="cls-13" x="358.87" y="211.55" width="12.04" height="12.04" rx="1.46" ry="1.46"/>
      <g>
        <rect class="cls-13" x="280.04" y="211.55" width="69.83" height="2.28" rx=".28" ry=".28"/>
        <rect class="cls-13" x="280.04" y="216.43" width="69.83" height="2.28" rx=".28" ry=".28"/>
        <rect class="cls-13" x="280.04" y="221.31" width="69.83" height="2.28" rx=".28" ry=".28"/>
      </g>
    </g>
    <g>
      <g>
        <path class="cls-5" d="m135.68,109.25c.13.01.26,0,.39-.06,1.34-.57,2.13-.83,2.13-.83.41-.14.63-.58.5-.99-.14-.41-.58-.63-.99-.5-.03.01-.84.28-2.25.87-.4.17-.59.63-.42,1.03.12.27.37.45.64.48Z"/>
        <path class="cls-5" d="m95.72,151.31c-.53,1.42-1.03,2.89-1.48,4.36-.11.36-.47.59-.83.55-.05,0-.1-.02-.15-.03-.41-.13-.65-.57-.52-.98.46-1.5.97-3,1.52-4.45.15-.41.6-.61,1.01-.46.41.15.61.6.46,1.01Z"/>
        <path class="cls-5" d="m93.01,160.11c-.36,1.47-.68,2.99-.97,4.51-.07.41-.45.68-.85.64-.02,0-.04,0-.06,0-.43-.08-.71-.49-.63-.91.29-1.55.62-3.09.98-4.59.1-.42.53-.68.95-.58.42.1.68.53.58.95Z"/>
        <path class="cls-5" d="m89.7,183.79c-.39-.04-.69-.37-.7-.77-.02-1.57-.01-3.15.03-4.69.01-.43.37-.77.81-.76.44.02.77.37.76.81-.05,1.52-.06,3.07-.03,4.62,0,.43-.34.79-.77.8-.03,0-.06,0-.1,0Z"/>
        <path class="cls-5" d="m90.65,168.3c.43.06.73.45.68.88-.09.71-.18,1.42-.25,2.13-.09.81-.16,1.64-.23,2.46-.03.43-.41.75-.84.72,0,0-.01,0-.02,0-.42-.04-.73-.42-.7-.84.07-.84.14-1.68.23-2.5.08-.72.16-1.45.26-2.17.05-.42.44-.72.86-.68,0,0,.01,0,.02,0Z"/>
        <path class="cls-5" d="m97.47,147.05c-.14.32-.47.49-.8.46-.08,0-.16-.03-.24-.06-.4-.18-.57-.64-.4-1.04.64-1.43,1.33-2.85,2.06-4.23.2-.38.68-.53,1.06-.33.38.2.53.68.33,1.06-.71,1.35-1.39,2.74-2.01,4.14Z"/>
        <path class="cls-5" d="m131.9,111.14c-1.35.69-2.71,1.44-4.04,2.23-.15.09-.32.12-.48.11-.24-.03-.46-.16-.59-.38-.22-.37-.1-.85.28-1.07,1.36-.81,2.75-1.57,4.12-2.27.39-.2.86-.04,1.05.34.2.39.04.86-.34,1.06Z"/>
        <path class="cls-5" d="m120.22,118.53c-.17.13-.37.18-.56.16-.21-.02-.4-.13-.54-.3-.26-.34-.2-.84.15-1.1,1.24-.95,2.53-1.87,3.82-2.74.36-.24.85-.15,1.09.21.24.36.15.85-.21,1.09-1.27.86-2.53,1.76-3.75,2.69Z"/>
        <path class="cls-5" d="m107.04,131.36c-.17.22-.44.32-.7.29-.14-.02-.29-.07-.41-.17-.34-.27-.39-.76-.12-1.1.97-1.22,2-2.42,3.05-3.58.29-.32.79-.34,1.11-.05.32.29.34.79.05,1.11-1.03,1.13-2.04,2.31-2.99,3.5Z"/>
        <path class="cls-5" d="m113.23,124.55c-.17.17-.41.24-.63.22-.18-.02-.35-.1-.48-.23-.3-.31-.3-.81.02-1.11,1.12-1.09,2.28-2.15,3.47-3.18.33-.28.82-.25,1.11.08.28.33.25.82-.08,1.11-1.16,1-2.31,2.05-3.4,3.11Z"/>
        <path class="cls-5" d="m101.75,138.9c-.16.27-.46.4-.75.37-.11-.01-.22-.05-.33-.11-.37-.23-.49-.71-.26-1.08.81-1.33,1.68-2.66,2.58-3.94.25-.35.74-.44,1.09-.19.35.25.44.74.19,1.09-.88,1.25-1.73,2.55-2.52,3.85Z"/>
      </g>
      <g>
        <polygon class="cls-6" points="135.69 103.89 132.26 91.18 174.31 91.54 135.69 103.89"/>
        <polygon class="cls-9" points="174.31 91.54 137.74 106.95 137.64 107 136.07 109.6 135.69 103.89 174.31 91.54"/>
        <polygon class="cls-9" points="136.07 109.6 139.47 109.07 137.64 107 136.07 109.6"/>
        <polygon class="cls-6" points="142.24 105.06 137.64 107 147.12 117.68 174.31 91.54 142.24 105.06"/>
      </g>
    </g>
    <g>
      <g>
        <circle class="cls-12" cx="297.46" cy="249.18" r="10.43" transform="translate(7.81 507.4) rotate(-81.67)"/>
        <path class="cls-15" d="m295.18,247.35c0,1.01-.45,1.83-1,1.83-.55,0-1-.82-1-1.83,0-1.01.45-1.83,1-1.83.55,0,1,.82,1,1.83Z"/>
        <path class="cls-15" d="m302.1,247.35c0,1.01-.45,1.83-1,1.83s-1-.82-1-1.83c0-1.01.45-1.83,1-1.83s1,.82,1,1.83Z"/>
        <path class="cls-15" d="m297.46,255.4c-4.76,0-5.85-4.36-5.86-4.4-.05-.2.08-.41.28-.46.2-.05.41.08.46.28h0c.04.16.97,3.82,5.12,3.82s5.08-3.67,5.12-3.82c.05-.2.25-.33.46-.28.2.05.33.25.28.46-.01.04-1.1,4.4-5.86,4.4Z"/>
        <path class="cls-15" d="m290.87,251.55c-.11,0-.21,0-.3-.02-.21-.03-.35-.23-.31-.43.03-.21.23-.35.43-.32.12.02,1.19.14,1.45-1.03.05-.2.25-.33.45-.29.2.05.33.25.29.45-.29,1.3-1.31,1.63-2,1.63Z"/>
        <path class="cls-15" d="m303.91,251.55c-.69,0-1.71-.33-2-1.63-.05-.2.08-.41.29-.45.2-.05.41.08.45.29.27,1.2,1.4,1.03,1.45,1.03.21-.03.4.11.43.31.03.21-.11.4-.31.43-.09.01-.19.02-.3.02Z"/>
      </g>
      <g>
        <circle class="cls-12" cx="330.96" cy="249.18" r="10.43" transform="translate(32.13 536.11) rotate(-80.81)"/>
        <path class="cls-15" d="m328.68,247.35c0,1.01-.45,1.83-1,1.83-.55,0-1-.82-1-1.83,0-1.01.45-1.83,1-1.83.55,0,1,.82,1,1.83Z"/>
        <path class="cls-15" d="m335.6,247.35c0,1.01-.45,1.83-1,1.83s-1-.82-1-1.83c0-1.01.45-1.83,1-1.83s1,.82,1,1.83Z"/>
        <path class="cls-15" d="m336.66,255.4c-.17,0-.33-.12-.37-.29-.04-.16-.97-3.82-5.12-3.82s-5.08,3.67-5.12,3.82c-.05.2-.25.33-.46.28-.2-.05-.33-.25-.28-.46.01-.04,1.1-4.4,5.86-4.4s5.85,4.36,5.86,4.4c.05.2-.08.41-.28.46-.03,0-.06.01-.09.01Z"/>
      </g>
    </g>
    <g>
      <g>
        <rect class="cls-12" x="293.38" y="259.9" width="36.64" height="53.04" transform="translate(24.83 597.7) rotate(-89.92)"/>
        <polygon class="cls-13" points="338.24 268.14 338.24 270.49 311.69 293.95 285.2 270.41 285.2 268.06 311.69 291.68 338.24 268.14"/>
        <polygon class="cls-13" points="306.59 287.05 286.69 304.7 285.15 304.7 285.15 303.76 305.44 285.77 306.59 287.05"/>
        <polygon class="cls-13" points="338.19 303.96 338.19 304.77 336.51 304.77 316.67 287.07 317.81 285.78 338.19 303.96"/>
        <polygon class="cls-16" points="285.2 268.06 311.69 291.68 338.24 268.14 285.2 268.06"/>
      </g>
      <path class="cls-12" d="m339.94,305.08c-.21,0-.38-.17-.38-.38v-33.21c0-.21.17-.38.38-.38s.38.17.38.38v33.21c0,.21-.17.38-.38.38Z"/>
      <path class="cls-12" d="m338.19,307.17h-25.87c-.21,0-.38-.17-.38-.38s.17-.38.38-.38h25.87c.21,0,.38.17.38.38s-.17.38-.38.38Z"/>
    </g>
    <g>
      <rect class="cls-10" x="296.83" y="167.78" width="13.36" height="32.3"/>
      <path class="cls-8" d="m296.83,180.09c2.96-1.8,7.23-3.36,13.36-3.95v23.94h-13.36v-19.99Z"/>
      <rect class="cls-10" x="316.54" y="144.84" width="13.37" height="55.23"/>
      <path class="cls-8" d="m316.54,175.89c3.86.05,8.29.44,13.37,1.26v22.93h-13.37v-24.18Z"/>
      <rect class="cls-10" x="338.37" y="127.92" width="13.36" height="72.16"/>
      <path class="cls-8" d="m338.37,178.79c4.92,1,9.36,1.63,13.36,1.96v19.32h-13.36v-21.28Z"/>
      <rect class="cls-10" x="359.75" y="108.05" width="13.37" height="92.02"/>
      <path class="cls-8" d="m373.12,179.19v20.89h-13.37v-19.04c5.43-.09,9.82-.81,13.37-1.85Z"/>
      <polygon class="cls-12" points="348.48 93.91 357.75 97.31 356.68 86.46 348.48 93.91"/>
      <path class="cls-12" d="m293.15,152.1c-.41,0-.79-.25-.94-.65-.19-.52.07-1.1.59-1.29.4-.15,40.62-15.56,60.24-56.99.24-.5.83-.71,1.34-.48.5.24.71.83.48,1.34-19.98,42.18-60.94,57.85-61.36,58.01-.12.04-.23.06-.35.06Z"/>
    </g>
    <g>
      <g>
        <rect class="cls-12" x="129.79" y="138.57" width="21.6" height="21.6" rx="2.04" ry="2.04"/>
        <path class="cls-3" d="m146.69,144.93c-.04-.15-.07-.3-.11-.45-.13-.52-.38-.99-.73-1.4-.25-.29-.55-.54-.88-.73-.46-.26-.97-.15-1.31.26-.6.73-1.2,1.46-1.8,2.19-.36.45-.31,1.07.15,1.47.32.29.67.55,1,.83.04.04.09.06.13.09-.8,2.15-2.15,3.81-4.1,5-.24-.2-.48-.4-.73-.61-.13-.1-.25-.21-.38-.31-.39-.3-.84-.33-1.25-.06-.13.08-.23.21-.33.33-.54.66-1.08,1.32-1.63,1.98-.17.21-.28.44-.32.7,0,.1.02.2.03.29.09.16.16.36.29.49.32.32.67.6,1.09.79.49.22,1,.36,1.54.31.35-.03.71-.11,1.05-.2.88-.25,1.68-.67,2.43-1.17.75-.5,1.43-1.09,2.05-1.74.84-.87,1.59-1.83,2.27-2.84.53-.79,1-1.63,1.3-2.54.15-.46.25-.93.28-1.41.01-.19.02-.39.03-.58-.02-.22-.04-.45-.07-.67Z"/>
      </g>
      <g>
        <rect class="cls-6" x="161.04" y="138.19" width="21.92" height="21.92" rx="1.82" ry="1.82"/>
        <path class="cls-3" d="m179.01,148.73c0,2.73-1.53,4.15-3.36,4.15-1.07,0-1.86-.42-2.26-1.25-.4.79-1.09,1.25-2.18,1.25-1.55,0-3.03-1.36-3.03-3.56s1.44-3.55,3.03-3.55c.76,0,1.35.24,1.76.7v-.57h2.75v4.09c0,.6.24.79.56.79.4,0,.73-.4.73-2,0-2.59-1.93-4.42-4.88-4.42s-4.91,2.06-4.91,4.78,1.93,4.81,4.85,4.81c.94,0,1.92-.19,2.89-.63l.6,1.76c-.86.41-2.22.69-3.49.69-4.31,0-7.07-2.88-7.07-6.63s2.76-6.6,7.13-6.6c4.12,0,6.88,2.76,6.88,6.2Zm-5.98.59c0-.86-.44-1.3-1.03-1.3s-1.02.44-1.02,1.3.43,1.32,1.02,1.32,1.03-.44,1.03-1.32Z"/>
      </g>
      <g>
        <rect class="cls-4" x="190.59" y="138.19" width="21.92" height="21.92" rx="1.82" ry="1.82"/>
        <path class="cls-3" d="m202.7,154.2v1.56s-2-.02-2-.02v-1.49c-1.39-.1-2.75-.49-3.59-1.01l1.09-2.41c.92.56,2.16.92,3.24.93.94,0,1.28-.19,1.28-.52.01-1.24-5.44-.28-5.41-3.95.01-1.59,1.18-2.91,3.48-3.22v-1.53s1.99.02,1.99.02v1.5c1.03.11,2.04.38,2.84.84l-1.02,2.4c-.97-.5-1.88-.75-2.74-.75-.97,0-1.28.27-1.28.61,0,1.18,5.44.24,5.41,3.87-.01,1.52-1.12,2.83-3.3,3.19Z"/>
      </g>
    </g>
  </g>
</svg>