<?xml version="1.0" encoding="UTF-8"?>
<svg xmlns="http://www.w3.org/2000/svg" viewBox="0 0 500 500">
  <defs>
    <style>
      .cls-1 {
        fill: #fff;
      }

      .cls-2, .cls-3, .cls-4 {
        fill: none;
        stroke: #000;
        stroke-linecap: round;
        stroke-miterlimit: 10;
        stroke-width: .82px;
      }

      .cls-5 {
        fill: #9fccc9;
      }

      .cls-6 {
        fill: #b8e3e2;
      }

      .cls-7 {
        fill: #0c2059;
      }

      .cls-8 {
        opacity: .53;
      }

      .cls-8, .cls-3, .cls-9, .cls-10 {
        mix-blend-mode: overlay;
      }

      .cls-11 {
        isolation: isolate;
      }

      .cls-12 {
        fill: #169799;
      }

      .cls-13 {
        fill: #20c3c5;
      }

      .cls-3, .cls-10 {
        opacity: .15;
      }

      .cls-14 {
        fill: #eaf9f8;
      }

      .cls-15 {
        fill: #ff6224;
      }

      .cls-16 {
        fill: #2e4780;
      }

      .cls-4 {
        stroke-dasharray: 0 0 4.05 4.05;
      }

      .cls-17 {
        fill: #383873;
      }

      .cls-18 {
        fill: #ffad94;
      }

      .cls-19 {
        fill: #86bfbc;
      }

      .cls-20 {
        fill: #382424;
      }

      .cls-21 {
        fill: #e03c03;
      }

      .cls-9 {
        opacity: .25;
      }

      .cls-22 {
        fill: #ffc947;
      }
    </style>
  </defs>
  <g class="cls-11">
    <g id="BACKGROUND">
      <rect class="cls-1" width="500" height="500"/>
    </g>
    <g id="OBJECTS">
      <g>
        <path class="cls-14" d="m459.8,229.02c-29.32,43.89-91.88,179.65-76.49,230.03l-224.45.05s-32.43-24.15-63.94-66.13c-5.73-7.63-11.42-15.85-16.88-24.62-5.8-9.29-11.33-19.2-16.35-29.69-14.61-30.41-25.03-65.65-25.45-104.6C34.76,99.24,151.46-26.07,310.21,24.5c158.75,50.57,178.9,160.63,149.59,204.52Z"/>
        <g>
          <path class="cls-21" d="m319.37,460.64c-.45,0-.9-.2-1.2-.58l-119.69-148.82c-.53-.66-.43-1.63.24-2.17.66-.53,1.63-.43,2.17.23l119.69,148.82c.53.66.43,1.63-.23,2.17-.29.23-.63.34-.97.34Z"/>
          <path class="cls-15" d="m133.7,460.64c-.34,0-.68-.11-.97-.34-.66-.53-.77-1.5-.24-2.17l119.69-148.82c.54-.66,1.5-.77,2.17-.23.66.53.77,1.5.23,2.17l-119.69,148.82c-.3.38-.75.58-1.2.58Z"/>
          <path class="cls-15" d="m253.39,460.64c-.45,0-.9-.2-1.2-.58l-119.69-148.82c-.53-.66-.43-1.63.24-2.17.66-.53,1.63-.43,2.17.23l119.69,148.82c.53.66.43,1.63-.23,2.17-.29.23-.63.34-.97.34Z"/>
          <path class="cls-21" d="m154.91,314.23h-55.61c-2.18,0-3.95-1.77-3.95-3.95h0c0-2.18,1.77-3.95,3.95-3.95h55.61c2.18,0,3.95,1.77,3.95,3.95h0c0,2.18-1.77,3.95-3.95,3.95Z"/>
          <path class="cls-15" d="m314.91,314.23h-158.94c-2.18,0-3.95-1.77-3.95-3.95h0c0-2.18,1.77-3.95,3.95-3.95h158.94v7.9Z"/>
          <path class="cls-21" d="m197.86,384.69c0,2.38-1.93,4.32-4.32,4.32s-4.32-1.93-4.32-4.32,1.93-4.32,4.32-4.32,4.32,1.93,4.32,4.32Z"/>
          <path class="cls-22" d="m263.83,384.69c0,2.38-1.93,4.32-4.32,4.32s-4.32-1.93-4.32-4.32,1.93-4.32,4.32-4.32,4.32,1.93,4.32,4.32Z"/>
        </g>
        <g>
          <rect class="cls-13" x="145.38" y="136.69" width="66.04" height="51.68" rx="3.99" ry="3.99"/>
          <path class="cls-1" d="m192.73,159.51h-2.07c-.32-1.13-.79-2.21-1.4-3.19l1.6-1.6c.61-.61.61-1.6,0-2.21l-2.25-2.25c-.61-.61-1.6-.61-2.21,0l-1.7,1.7c-.94-.53-1.95-.94-3.01-1.21v-2.55c0-.86-.7-1.56-1.56-1.56h-3.18c-.86,0-1.56.7-1.56,1.56v2.58c-1.03.27-2.01.66-2.92,1.16l-1.87-1.87c-.61-.61-1.6-.61-2.21,0l-2.25,2.25c-.61.61-.61,1.6,0,2.21l1.73,1.73c-.58.92-1.03,1.92-1.36,2.98h-2.43c-.86,0-1.56.7-1.56,1.56v3.18c0,.86.7,1.56,1.56,1.56h2.13c.24,1.18.64,2.3,1.2,3.33l-1.45,1.45c-.61.61-.61,1.6,0,2.21l2.25,2.25c.61.61,1.6.61,2.21,0l1.26-1.26c1.05.69,2.21,1.22,3.45,1.56v1.77c0,.86.7,1.56,1.56,1.56h3.18c.86,0,1.56-.7,1.56-1.56v-1.65c1.28-.3,2.48-.79,3.57-1.44l1.22,1.22c.61.61,1.6.61,2.21,0l2.25-2.25c.61-.61.61-1.6,0-2.21l-1.25-1.25c.62-1.07,1.09-2.23,1.37-3.46h1.94c.86,0,1.56-.7,1.56-1.56v-3.18c0-.86-.7-1.56-1.56-1.56Zm-12.63,11.32c-5.66,1.07-10.51-3.79-9.45-9.45.6-3.16,3.15-5.71,6.3-6.3,5.66-1.07,10.51,3.79,9.45,9.45-.6,3.16-3.15,5.71-6.3,6.3Z"/>
        </g>
        <g>
          <rect class="cls-15" x="229.72" y="108.14" width="66.04" height="51.68" rx="3.99" ry="3.99"/>
          <g>
            <g>
              <path class="cls-1" d="m251.59,142.67c-.39,0-.79-.16-1.09-.48l-6.96-7.45c-.6-.64-.6-1.69,0-2.33l7.08-7.57c.6-.64,1.58-.64,2.18,0,.6.64.6,1.69,0,2.33l-5.99,6.41,5.87,6.28c.6.64.6,1.69,0,2.33-.3.32-.7.48-1.09.48Z"/>
              <path class="cls-1" d="m273.89,142.67c-.39,0-.79-.16-1.09-.48-.6-.64-.6-1.69,0-2.33l5.87-6.28-5.99-6.41c-.6-.64-.6-1.69,0-2.33.6-.64,1.58-.64,2.18,0l7.08,7.57c.29.31.45.73.45,1.17s-.16.86-.45,1.17l-6.96,7.45c-.3.32-.7.48-1.09.48Z"/>
            </g>
            <path class="cls-1" d="m259.29,144.71c-.19,0-.39-.04-.58-.12-.79-.34-1.17-1.31-.85-2.15l6.91-18.16c.32-.84,1.22-1.25,2.01-.91.79.34,1.17,1.31.85,2.15l-6.91,18.16c-.24.64-.82,1.03-1.43,1.03Z"/>
          </g>
        </g>
        <g>
          <g>
            <path class="cls-1" d="m203.98,163.4h135.69c.92,0,1.66.74,1.66,1.66v4.69h-139v-4.69c0-.92.74-1.66,1.66-1.66Z"/>
            <path class="cls-17" d="m202.32,169.75h139v71.02c0,1.71-1.38,3.09-3.09,3.09h-132.82c-1.71,0-3.09-1.38-3.09-3.09v-71.02h0Z"/>
            <g>
              <path class="cls-15" d="m334.65,166.58c0,.54-.44.98-.98.98s-.98-.44-.98-.98.44-.98.98-.98.98.44.98.98Z"/>
              <path class="cls-15" d="m327.94,166.58c0,.54-.44.98-.98.98s-.98-.44-.98-.98.44-.98.98-.98.98.44.98.98Z"/>
              <path class="cls-15" d="m321.22,166.58c0,.54-.44.98-.98.98s-.98-.44-.98-.98.44-.98.98-.98.98.44.98.98Z"/>
            </g>
            <path class="cls-13" d="m286.72,179.77h-77.19c-.74,0-1.34-.6-1.34-1.34h0c0-.74.6-1.34,1.34-1.34h77.19c.74,0,1.34.6,1.34,1.34h0c0,.74-.6,1.34-1.34,1.34Z"/>
            <path class="cls-13" d="m286.72,188.32h-77.19c-.74,0-1.34-.6-1.34-1.34h0c0-.74.6-1.34,1.34-1.34h77.19c.74,0,1.34.6,1.34,1.34h0c0,.74-.6,1.34-1.34,1.34Z"/>
            <path class="cls-13" d="m249.89,196.87h-40.37c-.74,0-1.34-.6-1.34-1.34h0c0-.74.6-1.34,1.34-1.34h40.37c.74,0,1.34.6,1.34,1.34h0c0,.74-.6,1.34-1.34,1.34Z"/>
            <path class="cls-15" d="m286.72,213.96h-77.19c-.74,0-1.34-.6-1.34-1.34h0c0-.74.6-1.34,1.34-1.34h77.19c.74,0,1.34.6,1.34,1.34h0c0,.74-.6,1.34-1.34,1.34Z"/>
            <path class="cls-15" d="m249.89,222.51h-40.37c-.74,0-1.34-.6-1.34-1.34h0c0-.74.6-1.34,1.34-1.34h40.37c.74,0,1.34.6,1.34,1.34h0c0,.74-.6,1.34-1.34,1.34Z"/>
            <path class="cls-13" d="m249.89,231.06h-40.37c-.74,0-1.34-.6-1.34-1.34h0c0-.74.6-1.34,1.34-1.34h40.37c.74,0,1.34.6,1.34,1.34h0c0,.74-.6,1.34-1.34,1.34Z"/>
            <path class="cls-1" d="m286.72,196.87h-29.01c-.74,0-1.34-.6-1.34-1.34h0c0-.74.6-1.34,1.34-1.34h29.01c.74,0,1.34.6,1.34,1.34h0c0,.74-.6,1.34-1.34,1.34Z"/>
            <path class="cls-15" d="m325.03,177.67l-20.51,20.51c-.52.52-1.38.52-1.9,0h0c-.52-.52-.52-1.38,0-1.9l20.51-20.51c.52-.52,1.38-.52,1.9,0h0c.52.52.52,1.38,0,1.9Z"/>
            <circle class="cls-15" cx="313.83" cy="216.47" r="12.1" transform="translate(30.8 471.89) rotate(-76.66)"/>
            <path class="cls-13" d="m312.24,224.9c0,3.78-3.07,6.85-6.85,6.85s-6.85-3.07-6.85-6.85,3.07-6.85,6.85-6.85,6.85,3.07,6.85,6.85Z"/>
          </g>
          <polyline class="cls-17" points="202.32 236.36 202.32 260.81 224.8 238.34"/>
        </g>
        <g>
          <polygon class="cls-19" points="178.4 267.43 227.71 267.43 245.54 301.75 196.23 301.75 178.4 267.43"/>
          <path class="cls-1" d="m197.23,299.21l-14.76-28.42c-.31-.6.12-1.31.79-1.31h42.66c.33,0,.64.19.79.48l14.77,28.42c.31.6-.12,1.31-.79,1.31h-42.66c-.33,0-.64-.19-.79-.48Z"/>
          <rect class="cls-6" x="196.23" y="301.75" width="39.94" height="4.58"/>
          <path class="cls-5" d="m270.48,301.75h-39.41c-1.27,0-2.29,1.03-2.29,2.29h0c0,1.27,1.03,2.29,2.29,2.29h39.41c1.27,0,2.29-1.03,2.29-2.29h0c0-1.27-1.03-2.29-2.29-2.29Z"/>
          <path class="cls-6" d="m196.23,301.75l-17.83-34.32-.89.67c-.58.43-.75,1.22-.42,1.86l19.14,36.37v-4.58Z"/>
          <rect class="cls-5" x="209.79" y="303.88" width="4.4" height=".76"/>
          <rect class="cls-5" x="215.31" y="303.88" width="4.4" height=".76"/>
          <rect class="cls-5" x="220.84" y="303.88" width="4.4" height=".76"/>
        </g>
        <g>
          <path class="cls-17" d="m286.13,368.92s-40.9,31.85-47.39,39.94c-2.45,3.06-6.71,8.43-11.13,13.93-7.26,9.04-14.96,18.45-15.87,18.68-1.46.37-13.73-8.97-14.1-10.99-.23-1.25,10.95-20.44,20.62-35.86,5.89-9.38,11.22-17.37,13.09-19.1,4.94-4.58,35.37-20.7,35.37-20.7l19.42,14.1Z"/>
          <path class="cls-3" d="m208.08,434.67s38.21-54.39,57.4-63.55"/>
          <path class="cls-20" d="m328.76,229.26c-.43.99-.93,2.01-1.48,3.06-2.99,5.72-.78,11.44-4.19,12.9-.21.08-.43.16-.69.22-4.4.98-14.54-4.88-14.98-7.81-.44-2.93,3.13-7.95,0-8.55-3.12-.61-4.81,4.65-4.81,4.65-2.57.27-3.48-4.04-7.7-4.04-.6,0-1.18.08-1.75.23-1.98.49-3.72,1.72-4.83,2.66-.82.69-1.3,1.23-1.3,1.23,0,0-3.75-2.37-3.58-7.05.3-7.41,3.03-12.82,9.62-13.92.73-8.24,7.51-12.64,16.58-12.92,7.95-.25,9.14,6.9,9.32,8.68-.07-1.33-.44-5.68-2.33-8.68,3.98-.17,7.48,2.66,6.57,11.91.92-2.75,4.12-4.49,6.59-2.48-2.28,0-4.48,3.84-4.48,3.84,0,0,2.68,1.72,4.51,4.89,1.52,2.62.95,6.5-1.08,11.17Z"/>
          <path class="cls-18" d="m323.09,245.22l-.1,1.36-.35,4.81s-7.32,6.26-11.47,0c-.03-.04-.05-.08-.09-.12-1.28-1.91-2.45-2.58-3.51-2.7-2.29-.28-4.14,1.96-6.05-.46-5.47-6.94-7.65-14.98-8.35-18.19.57-.14,1.15-.23,1.75-.23,4.21,0,5.13,4.31,7.7,4.04,0,0,1.69-5.25,4.81-4.65,3.13.61-.44,5.62,0,8.55.2,1.31,2.32,3.2,5.02,4.8,3.14,1.88,7.04,3.37,9.52,3.08.15-.02.3-.04.44-.07.26-.05.48-.13.69-.22Z"/>
          <path class="cls-9" d="m324.23,254.18c-3.3,2.25-9.34,2.62-9.34,2.62l-4.94-.73s-2.07-3-1.1-4.68c.19-.33.65-.78,1.31-1.32,1.33-1.09,3.46-2.49,5.67-3.64,2.28-1.18,4.64-2.12,6.33-2.22,4.15-.24,5.38,7.7,2.08,9.96Z"/>
          <path class="cls-13" d="m323.25,334.36c-7.36,1.42-22.93-2.92-30.39-6.27-2.2-.99-3.7-1.89-4.06-2.53-1.43-2.52.01-4.45,3.56-12.45.4-.9.82-1.88,1.27-2.94,2.41-5.66,2.42-17.74,2.41-28.16-.03-8.91-.07-16.6,1.35-17.97,3.07-2.96,18.41-12.65,18.41-12.65l3.05,15.91s1.73,8.08,3.55,18.63c3.35,19.42,7.03,47.24.85,48.43Z"/>
          <path class="cls-17" d="m328.38,341.44c0,.73-7.33,17.82-13.48,20.27-6.15,2.45-43.2-.25-43.2-.25l-18.32,11.98,3.83,36.08,2.67,25.14.08.81c-5.6,3.66-19.72,4.65-21.24,1.49-.01-.01-.01-.02-.01-.02-1.47-3.18-23.94-70.84-15.14-82.57,8.79-11.72,65.21-28.82,65.21-28.82,1.47.94,3.18,1.78,5.04,2.53,6.27,2.57,14.24,4.18,20.3,5.13,2.33.36,4.38.63,5.94.81,1.97.24,3.17.33,3.17.33,0,0,5.13,6.34,5.13,7.08Z"/>
          <path class="cls-7" d="m262.3,459.05h-47.64c-.24-.84.08-1.7.8-2.56,1.93-2.32,6.77-4.66,11.44-6.67,4.43-1.91,8.69-3.56,10.12-4.69,3.36-2.66,1.81-7.84,1.72-8.16.51,1.06,2.46,1.65,5.03,1.83,5.05.36,12.5-.89,16.21-3.32l-.08-.81c1.42,2.71,2.09,16.13,2.31,21.82.06,1.57.09,2.56.09,2.56Z"/>
          <path class="cls-16" d="m243.77,438.8c-.14,2.27-.47,5.95-1.13,6.94-.98,1.47-11.48,6.6-12.94,6.11-.95-.31-2.1-1.34-2.79-2.03,4.43-1.91,8.69-3.56,10.12-4.69,3.36-2.66,1.81-7.84,1.72-8.16.51,1.06,2.46,1.65,5.03,1.83Z"/>
          <path class="cls-16" d="m262.3,459.05h-47.64c-.24-.84.08-1.7.8-2.56h46.74c.06,1.57.09,2.56.09,2.56Z"/>
          <path class="cls-7" d="m211.74,441.46s-3.62,9.54-6.75,14.59c-1.24,2.01-2.43,3.32-3.26,3-2.93-1.1-32.37-26.13-29.55-27.96.41-.27,1.07-.45,1.89-.56,2.56-.33,6.81.03,10.73.43,3.37.35,6.51.73,8.14.73,4.15,0,4.7-1.22,4.7-1.22.09.48.87,1.4,2.04,2.51,3.64,3.45,10.96,8.76,12.07,8.48Z"/>
          <path class="cls-16" d="m199.67,432.98c-6.24,4.13-12.75,1.64-14.03.7-.95-.69-.95-1.97-.84-2.71,3.37.35,6.51.73,8.14.73,4.15,0,4.7-1.22,4.7-1.22.09.48.87,1.4,2.04,2.51Z"/>
          <path class="cls-16" d="m204.98,456.05c-1.24,2.01-2.43,3.32-3.26,3-2.93-1.1-32.37-26.13-29.55-27.96.41-.27,1.07-.45,1.89-.56l30.92,25.51Z"/>
          <path class="cls-18" d="m292.89,303.18c-2.3,3.21-6.42,8.1-9.82,7.61-.12-.02-.26-.04-.42-.07-6.48-1.14-44.56-10.69-46.36-11.05-1.83-.36-14.65-.48-13.92-1.83.73-1.35,8.06-5.61,10.01-5.51,1.95.1,9.65,2.33,17.34,2.09,7.7-.24,27.85,0,27.85,0l.98-1.69,1.44-2.49c-.4,7.46,8.59,13.55,12.9,12.94Z"/>
          <path class="cls-3" d="m292.89,331s-1.75,9.34,5.08,12.46"/>
          <path class="cls-3" d="m289.3,338.51s-45.24,19.3-47.41,25.28c-2.17,5.98,11.51,70.88,11.51,70.88"/>
          <path class="cls-10" d="m328.38,341.44c0,.73-7.33,17.82-13.48,20.27-6.15,2.45-43.2-.25-43.2-.25l-18.32,11.98,3.83,36.08s-7.74-41.21-7.74-43.9c0-2.3,51.17-17.01,64.66-32.4,5.28.83,9.11,1.14,9.11,1.14,0,0,5.13,6.34,5.13,7.08Z"/>
          <path class="cls-9" d="m304.26,297.71c-3.18,4.5-8.3,10.22-11.89,15.4.4-.9.82-1.88,1.27-2.94,2.41-5.66,2.42-17.74,2.41-28.16l10.97-7.26s2.37,15.69-2.75,22.95Z"/>
          <path class="cls-12" d="m294.89,301.79c-.47.43-.96.86-1.44,1.26-.17.06-.36.1-.57.12-4.31.61-13.3-5.48-12.9-12.94.03-.56.47-1.67,1.19-3.11,3.68-7.42,14.75-23.94,16.79-23.18,0,0,7.11,1.1,9.05,10.81,1.81,9.12-4.72,20.18-12.12,27.04Z"/>
          <path class="cls-9" d="m320.09,334.03c-1.56-.19-3.61-.45-5.94-.81-6.06-.95-14.03-2.56-20.3-5.13,5.53-.2,17.36-3.83,18.79-30.92.65,5.07,1.62,10.32,2.98,15.7,1.82,7.14,3.54,14.68,4.47,21.17Z"/>
          <path class="cls-9" d="m317.17,244.68c-.57.66-1.01,1.25-1.35,1.76-2.21,1.15-4.35,2.55-5.67,3.64-.93-1.02-1.78-1.42-2.58-1.51l4.87-6.14c1.48.89,3.14,1.69,4.73,2.25Z"/>
          <path class="cls-9" d="m292.89,303.18c-2.3,3.21-6.42,8.1-9.82,7.61-.12-.02-.26-.04-.42-.07-4.19-6.06-4.35-14.01-4.1-17.99l1.44-2.49c-.4,7.46,8.59,13.55,12.9,12.94Z"/>
          <path class="cls-9" d="m328.76,229.26c-.43.99-.93,2.01-1.48,3.06-1.47,2.81-1.68,5.6-1.92,7.92-.49-.38-1-.73-1.5-1.03-3.18,1.89-5.31,3.85-6.69,5.47h-.01c-4.48-1.59-9.43-5.03-9.73-7.05-.44-2.93,3.13-7.95,0-8.55-3.12-.61-4.81,4.65-4.81,4.65-2.57.27-3.48-4.04-7.7-4.04-.6,0-1.18.08-1.75.23-1.98.49-3.72,1.72-4.83,2.66,0,0,4.75-6.67,12.2-5.32,0,0-1.09-2.08-6.11-1.83,10.51-3.42,17.22-2.08,20.46,1.71,2.64,3.09,8.84,6.92,13.88,2.14Z"/>
        </g>
        <g>
          <path class="cls-6" d="m350.12,373.44h-36.65s29.07-8.55,29.07-66.2c0-.74,0-1.47-.01-2.2-.3-38.53-8.53-59.78-18.68-65.83,3.18-1.88,7.4-3.68,12.98-4.92,2.44-.56,5.12-1,8.09-1.31,25.09-2.56,45.14,7.28,47.52,18.41,2.37,11.13-12.29,122.05-42.33,122.05Z"/>
          <path class="cls-19" d="m342.55,307.24c0,57.65-29.07,66.2-29.07,66.2h-60.08l2.5-1.78,15.82-10.2,31.75-2.2c1.71-7.08,6.35-7.32,13.44-8.06,4.12-.42,4.52-7.38,3.27-16.58-.91-6.62-2.68-14.4-4.55-21.76-1.36-5.38-2.33-10.63-2.98-15.7-.77-5.93-1.11-11.6-1.14-16.93-.09-12.15,1.39-22.53,2.95-30.04.14-.73.3-1.43.45-2.1,0-.02.01-.05.01-.07.14-.32.77-1.61,2.25-3.34h.01c1.38-1.62,3.52-3.59,6.69-5.48.5.3,1.01.65,1.5,1.03,9.45,7.2,16.89,28.2,17.18,64.8.01.73.01,1.46.01,2.2Z"/>
          <path class="cls-6" d="m330.95,459.05h-43.26c-1.48,0-2.13-1.87-.96-2.79l10.82-8.47c4.8-3.76,7.61-9.53,7.61-15.63v-58.73h8.31v58.73c0,6.1,2.81,11.86,7.62,15.63l10.81,8.47c1.17.91.52,2.79-.96,2.79Z"/>
          <g class="cls-9">
            <g>
              <path class="cls-2" d="m363.94,235.19s.25.64.67,1.93"/>
              <path class="cls-4" d="m365.79,241c1.51,5.38,3.67,14.5,5.34,27.4,3.97,30.63-.14,73.75-27.22,100.68"/>
              <path class="cls-2" d="m342.44,370.5c-.49.47-1,.93-1.51,1.39"/>
            </g>
          </g>
          <path class="cls-10" d="m313.48,373.44v16.04c-2.88,1.5-5.8,2.65-8.31,3.5v-19.53h8.31Z"/>
          <path class="cls-10" d="m324.96,348.52c-1.95,6.11-14.15,5.01-15.64,9.53-3.14,9.58-4.88,5.37-16.96,6.59-6.91.7-11.92,5.13-14.95,8.8h-24.02l2.5-1.78,15.82-10.2,31.75-2.2c1.71-7.08,6.35-7.32,13.44-8.06,4.12-.42,4.52-7.38,3.27-16.58-.91-6.62-2.68-14.4-4.55-21.76-1.36-5.38-2.33-10.63-2.98-15.7-.77-5.93-1.11-11.6-1.14-16.93,4.7,24.49,14.92,63.76,13.47,68.29Z"/>
          <path class="cls-10" d="m342.55,307.24c0-.74,0-1.47-.01-2.2-.3-38.53-8.53-59.78-18.68-65.83,3.18-1.88,7.4-3.68,12.98-4.92-1.68,2.42-3.42,6.04-2.6,9.92,1.47,6.86,18.08,33.23,11.73,75.49-4.58,30.49-3.06,46.35,1.73,53.74h-34.22s29.07-8.55,29.07-66.2Z"/>
        </g>
        <path class="cls-9" d="m132.87,275.84c-.02,1.34-.14,2.6-.39,3.72h-11.79c-3.46-2.3-9.12-6.86-12.51-13.69,3.16,3.43,8.54,7.62,14.03,8.89,4.79,1.11,8.36.64,10.66,1.08Z"/>
        <g>
          <path class="cls-13" d="m160.26,229.02c-1.32,4.78-7.35,14.05-12.86,23.98-6.02,10.83-11.41,22.44-9.3,29.81.52,1.85.76,3.21.76,4.18.02,3.21-2.42,2.21-4.87.39-2.51-1.86-5.05-4.57-5.05-4.57l.19-14.29s-8.1-7.44-1.45-23.73c.42-1.03.9-2.1,1.45-3.21,9.16-18.5,22.89-37.92,9.89-43.42,17.96-1.1,24,20.85,21.25,30.85Z"/>
          <g class="cls-8">
            <path d="m139.01,198.18c6.58,1.42,10.38,8.02,11.09,14.32.36,3.89-.99,7.68-2.26,11.3-1.2,3.22-2.59,6.36-4.02,9.47-4.23,9.34-9.24,18.39-12.3,28.2-.87,3.16-1.78,6.68-.75,9.85.08.21-.03.46-.25.53-.21.08-.45-.04-.52-.26-2.86-9.08,9.55-29.41,13.44-38.5,1.46-3.1,2.87-6.22,4.1-9.41,1.29-3.57,2.67-7.32,2.35-11.17-.65-6.27-4.36-12.86-10.9-14.34h0Z"/>
          </g>
          <path class="cls-12" d="m152.01,257.9c-5.49,14.47,0,25.45-8.24,27.01-3.77.72-5.44-2.08-6.13-5.32-.82-3.84-.28-8.32-.28-8.32,0,0,1.4-3.58,4.34-7.05,2.4-2.83,5.8-5.58,10.31-6.32Z"/>
          <path class="cls-6" d="m132.87,275.84c-.03,3.37-.79,6.23-2.35,7.73-.15.15-.31.29-.45.4-3.9,3.16-6.38-2.62-6.38-2.62,0,0-10.36-5.11-15.5-15.48-3.94-7.97-4.81-19.05,4.45-33.3,1.36,10.15,6.92,17.05,12.43,23.61h0c.69.83,1.37,1.63,2.05,2.45,3.81,4.57,5.82,11.61,5.77,17.21Z"/>
          <g class="cls-8">
            <path d="m112.63,232.57c-1.67,8.6-1.4,18.21,3.33,25.82,2.3,3.8,5.5,6.93,8.38,10.34,2.94,3.36,5.48,7.62,5,12.29-.02.23-.22.39-.44.37-.23-.02-.39-.22-.37-.44.21-2.16-.16-4.34-1.06-6.33-2.87-6.05-8.55-10.18-11.86-16.02-4.66-7.75-4.79-17.4-2.98-26.03h0Z"/>
          </g>
          <g class="cls-9">
            <path d="m152.02,257.9c-6.01,7.26-11.93,15.54-13.52,24.99-.08.52-.89.42-.81-.12,1.91-9.63,8.02-17.66,14.33-24.87h0Z"/>
          </g>
          <path class="cls-6" d="m148.68,283.18l-3.52,21.59c-.17.9-.97,1.56-1.89,1.56h-21.91c-.93,0-1.72-.66-1.89-1.56l-2.86-17.53-.66-4.06c-.22-1.18.69-2.27,1.89-2.27h28.94c1.2,0,2.11,1.09,1.89,2.27Z"/>
          <path class="cls-19" d="m152.01,287.58h-39.38l1.04-5.88c.23-1.23,1.3-2.14,2.55-2.14h32.22c1.24,0,2.32.9,2.54,2.14l1.04,5.88Z"/>
          <path class="cls-9" d="m137.37,271.27s-.54,4.45.27,8.29h-5.15c.25-1.12.37-2.38.39-3.72.05-5.6-1.95-12.63-5.77-17.21-.68-.81-1.36-1.61-2.05-2.44h0c.08-3.17.8-6.95,2.61-11.39.3,5.19,1.57,14.22,6.75,15.17,3.94.72,9.07-3.19,12.97-6.97-2.07,3.71-4.05,7.51-5.69,11.22-2.94,3.47-4.34,7.05-4.34,7.05Z"/>
          <path class="cls-9" d="m134.45,306.33h-13.08c-.93,0-1.72-.66-1.89-1.56l-2.81-17.19h11.3c-.28,2.41-.62,6.9.24,10.38.67,2.77,3.09,6.32,6.24,8.37Z"/>
        </g>
        <g>
          <rect class="cls-17" x="172.47" y="76.83" width="66.04" height="51.68" rx="3.99" ry="3.99"/>
          <g>
            <path class="cls-1" d="m187.85,95.11v5.56c0,.45.36.81.81.81h3.08c.45,0,.81-.36.81-.81v-5.56c0-.45.36-.81.81-.81h.3c.45,0,.81.36.81.81v15.12c0,.45-.36.81-.81.81h-.3c-.45,0-.81-.36-.81-.81v-6.21c0-.45-.36-.81-.81-.81h-3.08c-.45,0-.81.36-.81.81v6.21c0,.45-.36.81-.81.81h-.3c-.45,0-.81-.36-.81-.81v-15.12c0-.45.36-.81.81-.81h.3c.45,0,.81.36.81.81Z"/>
            <path class="cls-1" d="m198.58,96.02h-1.44c-.45,0-.81-.36-.81-.81v-.1c0-.45.36-.81.81-.81h6.41c.45,0,.81.36.81.81v.1c0,.45-.36.81-.81.81h-1.44c-.45,0-.81.36-.81.81v13.41c0,.45-.36.81-.81.81h-.3c-.45,0-.81-.36-.81-.81v-13.41c0-.45-.36-.81-.81-.81Z"/>
            <path class="cls-1" d="m216.25,103.84c-.12-2.21-.25-4.67-.17-6.55h-.1c-.37,1.86-.82,3.85-1.34,5.81l-2.06,7.85h-1.22l-1.96-7.52c-.55-2.13-1.04-4.2-1.37-6.13h-.07c0,1.96-.1,4.3-.2,6.68l-.29,6.31c-.02.43-.37.77-.81.77h-.09c-.46,0-.83-.39-.81-.85l.9-15.12c.03-.43.38-.76.81-.76h.67c.37,0,.69.25.78.61l1.81,7.04c.57,2.21.99,3.85,1.34,5.76h.07c.32-1.91.7-3.5,1.24-5.76l1.74-7.03c.09-.36.41-.61.78-.61h.74c.43,0,.78.33.81.76l.87,15.12c.03.46-.34.85-.81.85h-.16c-.43,0-.79-.34-.81-.77l-.31-6.43Z"/>
            <path class="cls-1" d="m221.79,94.31h.3c.45,0,.81.36.81.81v13.51c0,.45.36.81.81.81h3.1c.45,0,.81.36.81.81h0c0,.45-.36.81-.81.81h-5.02c-.45,0-.81-.36-.81-.81v-15.12c0-.45.36-.81.81-.81Z"/>
          </g>
        </g>
        <g>
          <g>
            <path class="cls-17" d="m259.05,81.26c2.1,0,2.59-1.41,2.59-2.67,0-1.11-.11-2.17-.23-3.24-.11-1.14-.23-2.17-.23-3.35,0-3.43,2.1-4.88,4.8-4.88h.46v1.98h-.57c-1.6,0-2.25,1.14-2.25,2.86,0,1.03.12,1.98.23,2.9.08.99.19,1.91.19,2.82.04,2.97-.99,4-2.63,4.46v.08c1.64.5,2.67,1.52,2.63,4.54,0,.95-.11,1.91-.19,2.86-.11.95-.23,1.91-.23,2.93,0,1.72.57,2.9,2.29,2.9h.53v1.98h-.5c-2.52,0-4.76-1.26-4.76-4.88,0-1.14.12-2.29.23-3.39.11-1.11.23-2.21.23-3.28,0-1.22-.5-2.71-2.59-2.71v-1.91Z"/>
            <path class="cls-17" d="m297.9,83.17c-2.1,0-2.59,1.49-2.59,2.71,0,1.07.11,2.17.23,3.28.11,1.1.23,2.25.23,3.39,0,3.62-2.25,4.88-4.76,4.88h-.5v-1.98h.53c1.72-.19,2.29-1.18,2.29-2.9,0-1.03-.11-1.98-.19-2.93-.11-.95-.23-1.91-.23-2.86-.04-3.01.99-4.04,2.63-4.54v-.08c-1.64-.46-2.67-1.49-2.63-4.46,0-.91.11-1.83.23-2.82.08-.91.19-1.87.19-2.9,0-1.71-.65-2.67-2.25-2.86h-.57v-1.98h.46c2.71,0,4.8,1.45,4.8,4.88,0,1.18-.11,2.21-.23,3.35-.11,1.07-.23,2.13-.23,3.24,0,1.26.5,2.67,2.59,2.67v1.91Z"/>
          </g>
          <polygon class="cls-15" points="284.82 85.94 284.82 78.6 278.47 74.94 272.12 78.6 272.12 85.94 278.47 89.6 284.82 85.94"/>
        </g>
        <g>
          <path class="cls-15" d="m332.59,122.47c-5.97-2.97-13.15-1.8-17.86,2.92-5.82,5.82-6.02,15.16-.62,21.23l-2.33-.28c-.28-.03-.54.17-.57.45-.03.28.17.54.45.57l3.55.42c.14.02.28-.03.38-.11.1-.08.18-.2.19-.34l.41-3.43c.03-.28-.17-.54-.45-.57-.28-.03-.54.17-.57.45l-.26,2.18c-5.07-5.67-4.9-14.41.55-19.86,4.4-4.4,11.11-5.5,16.68-2.73.25.13.56.02.69-.23.13-.25.02-.56-.23-.69Z"/>
          <path class="cls-15" d="m319.25,150.91c5.97,2.97,13.15,1.8,17.86-2.92,5.82-5.82,6.02-15.16.62-21.23l2.33.28c.28.03.54-.17.57-.45.03-.28-.17-.54-.45-.57l-3.55-.42c-.14-.02-.28.02-.38.11-.1.08-.18.2-.19.34l-.41,3.43c-.03.28.17.54.45.57.28.03.54-.17.57-.45l.26-2.18c5.07,5.67,4.9,14.41-.55,19.86-4.4,4.4-11.11,5.5-16.68,2.73-.25-.13-.56-.02-.69.23-.13.25-.02.56.23.69Z"/>
        </g>
        <g>
          <path class="cls-15" d="m456.73,179.77h-93.03c-1.7,0-3.07-1.37-3.07-3.07h0c0-1.7,1.37-3.07,3.07-3.07h93.03c1.7,0,3.07,1.37,3.07,3.07h0c0,1.7-1.37,3.07-3.07,3.07Z"/>
          <path class="cls-13" d="m423.51,193.11h-59.81c-1.7,0-3.07-1.37-3.07-3.07h0c0-1.7,1.37-3.07,3.07-3.07h59.81c1.7,0,3.07,1.37,3.07,3.07h0c0,1.7-1.37,3.07-3.07,3.07Z"/>
          <path class="cls-13" d="m423.51,207.44h-59.81c-1.7,0-3.07-1.37-3.07-3.07h0c0-1.7,1.37-3.07,3.07-3.07h59.81c1.7,0,3.07,1.37,3.07,3.07h0c0,1.7-1.37,3.07-3.07,3.07Z"/>
        </g>
        <g>
          <path class="cls-13" d="m126.86,128.75h-48.32c-1.7,0-3.07-1.37-3.07-3.07h0c0-1.7,1.37-3.07,3.07-3.07h48.32c1.7,0,3.07,1.37,3.07,3.07h0c0,1.7-1.37,3.07-3.07,3.07Z"/>
          <path class="cls-15" d="m108.61,142.1h-30.08c-1.7,0-3.07-1.37-3.07-3.07h0c0-1.7,1.37-3.07,3.07-3.07h30.08c1.7,0,3.07,1.37,3.07,3.07h0c0,1.7-1.37,3.07-3.07,3.07Z"/>
          <path class="cls-15" d="m108.61,156.43h-30.08c-1.7,0-3.07-1.37-3.07-3.07h0c0-1.7,1.37-3.07,3.07-3.07h30.08c1.7,0,3.07,1.37,3.07,3.07h0c0,1.7-1.37,3.07-3.07,3.07Z"/>
        </g>
        <g>
          <path class="cls-12" d="m414.81,351.33c-3.01,8.74-6.61,16.37-10.37,23.25-13,23.76-28.1,38.87-28.67,61.02,0,0-4.69-20.87-.93-44.64,2.11-13.35,6.88-27.62,16.63-39.63,27.15-33.39,23.13-63.75,23.13-63.75,0,0,13.61,24.91.21,63.75Z"/>
          <g class="cls-9">
            <path d="m382.93,409.6c-1.28-12.2,3.31-24.22,9.08-34.75,1.24-2.36,4.9-7.92,6.4-10.24,2.78-4.55,5.13-9.37,7.1-14.33,5.87-14.93,9.37-30.83,10.46-46.83.15-5.27.69-10.9-1.37-15.87,2.13,4.95,1.65,10.61,1.58,15.88-1.32,20.89-6.49,43.38-17.1,61.57-5.85,8.74-11.37,18.41-13.88,28.68-1.27,5.1-2.09,10.52-1.46,15.74.05.23-.11.47-.34.5-.22.03-.43-.12-.46-.35h0Z"/>
          </g>
          <path class="cls-9" d="m404.44,374.58c-13,23.76-28.1,38.87-28.67,61.02,0,0-4.69-20.87-.93-44.64,8.43-3.44,20.28-9.06,29.6-16.38Z"/>
          <path class="cls-13" d="m383.31,459.05s-9.5-16.24,12.98-36.27c22.47-20.03,40.06-46.53,36.64-67.97-21.5,24.97-78.65,60.39-62.53,104.24h12.92Z"/>
          <g class="cls-9">
            <path d="m432.93,354.82c-4.41,9.42-11.11,17.6-18.36,24.98-5.38,5.65-11.91,10.04-17.26,15.7-12.26,13.1-21.24,30.27-22.12,48.38-.16,5.13.5,10.36,2.55,15.06.09.21,0,.45-.21.54-.21.09-.45,0-.54-.21-2.09-4.86-2.71-10.2-2.52-15.41,1.01-18.27,10.15-35.49,22.58-48.6,5.4-5.63,11.96-9.99,17.38-15.6,7.3-7.32,14.04-15.45,18.51-24.84h0Z"/>
          </g>
        </g>
        <g>
          <path class="cls-12" d="m60.78,341.44s-11.72-10.69-17.95-37.4c35.91,30.44,44.7,57.55,44.7,57.55l-26.75-20.15Z"/>
          <g class="cls-9">
            <path d="m42.83,304.04c9.76,14.45,20.05,28.67,27.77,44.35.22.49-.54.83-.75.32-7.44-15.73-17.52-30.13-27.02-44.67h0Z"/>
          </g>
          <path class="cls-13" d="m86.8,356.46c-6.46-5.82-16.02-11.59-25.11-17.79-12.1-8.25-23.38-17.32-25.46-28.39-4.75,39.96,41.73,57.95,41.73,57.95l.09.13,16.88,24.62s6.9-22.95-8.12-36.51Z"/>
          <g class="cls-9">
            <path d="m36.22,310.27c.24,13.77,10.22,24.84,21.46,31.63,11.13,7.19,23.01,14.21,30.4,25.61,4.97,7.48,7.26,16.53,7.25,25.46,0,.23-.18.41-.41.41-.23,0-.41-.18-.41-.41.07-8.8-2.1-17.71-6.95-25.12-7.21-11.33-19.04-18.47-30.05-25.69-11.21-6.89-21.17-18.09-21.29-31.89h0Z"/>
          </g>
        </g>
        <path class="cls-14" d="m417.66,476.88H105.42c-4.92,0-8.92-3.99-8.92-8.92h0c0-4.92,3.99-8.92,8.92-8.92h312.24c4.92,0,8.92,3.99,8.92,8.92h0c0,4.92-3.99,8.92-8.92,8.92Z"/>
      </g>
    </g>
  </g>
</svg>