<?xml version="1.0" encoding="UTF-8"?>
<svg id="OBJECTS" xmlns="http://www.w3.org/2000/svg" viewBox="0 0 500 500">
  <defs>
    <style>
      .cls-1 {
        fill: #1b1a1b;
      }

      .cls-2, .cls-3 {
        fill: #4b0263;
      }

      .cls-4 {
        fill: #ffd96e;
        opacity: .45;
      }

      .cls-5 {
        fill: #02a2cb;
      }

      .cls-6 {
        fill: #febb09;
      }

      .cls-7 {
        fill: #ff0b00;
      }

      .cls-8, .cls-9, .cls-10, .cls-11 {
        fill: none;
        stroke-miterlimit: 10;
      }

      .cls-8, .cls-10 {
        stroke: #4b0263;
      }

      .cls-9 {
        stroke: #02a2cb;
      }

      .cls-12 {
        fill: #010305;
      }

      .cls-13 {
        fill: #f60034;
      }

      .cls-10 {
        stroke-width: 2px;
      }

      .cls-14 {
        fill: #feb604;
      }

      .cls-15 {
        fill: #fdf6e6;
        opacity: .2;
      }

      .cls-16 {
        fill: #fcb610;
      }

      .cls-11 {
        stroke: #febb09;
      }

      .cls-17, .cls-3 {
        opacity: .09;
      }
    </style>
  </defs>
  <g>
    <g>
      <path class="cls-6" d="m367.7,300.64c11.91.42,23.69,2.89,34.81,7.17,11.11,4.28,21.52,10.36,30.7,17.95,5.13,4.25,9.86,8.98,14.1,14.12.41.5,1.18-.16.76-.66-7.63-9.25-16.85-17.16-27.08-23.41-10.23-6.25-21.47-10.86-33.16-13.53-6.58-1.5-13.3-2.4-20.04-2.64-.65-.02-.73.98-.08,1.01h0Z"/>
      <path class="cls-6" d="m391.3,304.23c7.15-6.89,16.97-14.65,27.03-19.01,5.69-2.47,11.98-4.51,18.51-4.44,3.09.03,6.4.65,8.28,2.47,2.8,2.7,1.24,6.83-1.78,9.47-3.27,2.85-7.86,4.63-12.43,6.14-12.17,4.02-26.46,4.24-39.61,5.37"/>
      <path class="cls-6" d="m421.48,316.78c6.53-4.18,15.24-8.61,23.61-10.41,4.74-1.02,9.87-1.61,14.85-.56,2.36.5,4.8,1.48,5.96,3.16,1.73,2.49-.1,5.42-2.81,6.98-2.94,1.69-6.73,2.34-10.46,2.8-9.93,1.21-20.91-.81-31.15-1.96"/>
      <path class="cls-6" d="m425.61,319.12c9.54,2.78,21.15,7.44,29.93,14,4.97,3.71,9.87,8.16,13.06,13.85,1.51,2.69,2.61,5.87,1.98,8.41-.94,3.77-5.31,4.47-9.1,3.17-4.1-1.41-7.93-4.51-11.51-7.73-9.54-8.56-16.84-20.85-24.36-31.69"/>
      <path class="cls-6" d="m401.49,306.63c5.72,6.01,12.27,14.33,16.25,23.04,2.25,4.93,4.22,10.41,4.59,16.2.18,2.74-.08,5.71-1.35,7.47-1.87,2.62-5.13,1.43-7.34-1.11-2.39-2.76-4.04-6.74-5.49-10.73-3.85-10.6-4.95-23.26-6.66-34.87"/>
      <path class="cls-6" d="m383.93,301.77c3.67,3.85,7.87,9.19,10.43,14.78,1.45,3.16,2.7,6.68,2.94,10.39.11,1.76-.05,3.66-.86,4.79-1.2,1.68-3.29.92-4.71-.71-1.53-1.77-2.59-4.33-3.52-6.88-2.47-6.8-3.18-14.92-4.27-22.37"/>
    </g>
    <g class="cls-17">
      <path class="cls-2" d="m242.53,353.56c-3.55,6.64-8.23,12.64-13.74,17.75-5.52,5.11-11.86,9.33-18.71,12.43-3.84,1.73-7.84,3.1-11.93,4.07-.4.1-.24.71.16.62,7.37-1.76,14.42-4.79,20.81-8.86,6.39-4.07,12.13-9.16,16.9-15.05,2.68-3.32,5.06-6.88,7.07-10.64.19-.36-.35-.69-.55-.33h0Z"/>
      <path class="cls-2" d="m233.93,365.95c1.92,5.97,3.59,13.7,3.27,20.62-.18,3.92-.77,8.05-2.63,11.73-.88,1.74-2.15,3.45-3.7,4.01-2.31.84-4.22-1.2-4.88-3.64-.71-2.65-.44-5.75-.03-8.76,1.1-8.02,4.95-16.19,7.97-23.96"/>
      <path class="cls-2" d="m218.42,379.58c.56,4.87.65,11.04-.66,16.29-.74,2.97-1.83,6.05-3.81,8.58-.94,1.2-2.17,2.31-3.45,2.5-1.9.29-3.05-1.56-3.18-3.54-.14-2.14.54-4.47,1.32-6.71,2.08-5.97,6.27-11.64,9.77-17.13"/>
      <path class="cls-2" d="m215.95,381.28c-4.23,4.64-10.1,9.93-16.26,13.09-3.49,1.79-7.37,3.33-11.49,3.56-1.95.11-4.06-.15-5.32-1.22-1.88-1.58-1.06-4.26.73-6.04,1.94-1.93,4.77-3.24,7.59-4.38,7.51-3.03,16.51-3.76,24.75-5.01"/>
      <path class="cls-2" d="m229.74,371.06c-5,1.58-11.54,2.98-17.59,2.81-3.42-.09-7.08-.5-10.46-1.9-1.6-.66-3.21-1.63-3.86-2.84-.96-1.79.61-3.31,2.67-3.85,2.23-.59,4.95-.42,7.61-.13,7.08.76,14.57,3.66,21.63,5.91"/>
      <path class="cls-2" d="m237.37,362.45c-3.21,1.01-7.4,1.91-11.28,1.81-2.2-.06-4.54-.32-6.71-1.22-1.03-.42-2.06-1.05-2.48-1.82-.62-1.15.39-2.12,1.71-2.47,1.43-.38,3.18-.27,4.88-.09,4.54.49,9.35,2.35,13.88,3.79"/>
    </g>
    <g class="cls-17">
      <path class="cls-2" d="m290.04,134.98c3.19-6.82,7.54-13.06,12.78-18.46,5.24-5.4,11.34-9.95,18.03-13.41,3.74-1.93,7.66-3.51,11.7-4.71.39-.12.2-.72-.2-.61-7.26,2.15-14.14,5.55-20.31,9.95-6.16,4.4-11.62,9.8-16.07,15.93-2.5,3.45-4.68,7.13-6.49,11-.17.37.39.67.56.3h0Z"/>
      <path class="cls-2" d="m297.96,122.14c-2.24-5.86-4.32-13.49-4.36-20.41-.03-3.92.34-8.08,2-11.86.78-1.79,1.96-3.56,3.48-4.2,2.26-.96,4.28.97,5.07,3.38.85,2.6.75,5.72.49,8.75-.68,8.07-4.08,16.43-6.68,24.35"/>
      <path class="cls-2" d="m312.72,107.7c-.81-4.83-1.24-10.99-.21-16.3.58-3.01,1.5-6.14,3.35-8.77.87-1.25,2.05-2.42,3.31-2.69,1.88-.39,3.13,1.4,3.36,3.36.25,2.12-.3,4.49-.96,6.77-1.75,6.07-5.64,11.96-8.85,17.62"/>
      <path class="cls-2" d="m315.1,105.88c3.97-4.86,9.55-10.45,15.54-13.94,3.39-1.97,7.18-3.72,11.28-4.16,1.94-.21,4.06-.07,5.38.93,1.96,1.48,1.29,4.2-.41,6.07-1.84,2.03-4.59,3.49-7.34,4.78-7.33,3.43-16.28,4.63-24.45,6.32"/>
      <path class="cls-2" d="m301.88,116.81c4.91-1.84,11.37-3.59,17.41-3.75,3.42-.09,7.09.12,10.55,1.34,1.64.58,3.3,1.46,4.01,2.63,1.06,1.74-.44,3.34-2.46,3.99-2.19.71-4.92.68-7.59.54-7.11-.38-14.75-2.87-21.92-4.75"/>
      <path class="cls-2" d="m294.71,125.82c3.15-1.18,7.29-2.3,11.17-2.4,2.2-.06,4.55.08,6.77.86,1.05.37,2.11.94,2.57,1.69.68,1.11-.28,2.14-1.58,2.56-1.41.45-3.16.44-4.87.35-4.56-.24-9.46-1.84-14.06-3.05"/>
    </g>
    <g>
      <path class="cls-6" d="m119.7,167.28c-10.44,2.57-21.29,3.34-32,2.36-10.71-.98-21.25-3.68-31.09-8.01-5.51-2.42-10.78-5.37-15.74-8.79-.48-.33-.98.43-.5.76,8.91,6.15,18.87,10.75,29.3,13.65,10.43,2.9,21.33,4.13,32.14,3.57,6.09-.32,12.14-1.2,18.06-2.66.57-.14.39-1.03-.18-.89h0Z"/>
      <path class="cls-6" d="m98.31,169.99c-4.51,7.75-11.12,16.91-18.79,23.18-4.34,3.55-9.3,6.87-14.98,8.42-2.69.73-5.72,1.01-7.8-.1-3.1-1.65-2.76-5.63-.79-8.67,2.13-3.29,5.68-5.96,9.28-8.4,9.58-6.49,21.94-10.22,33.08-14.44"/>
      <path class="cls-6" d="m69,166.54c-4.64,5.24-11.11,11.24-17.94,14.87-3.86,2.05-8.17,3.84-12.76,4.15-2.17.15-4.53-.1-5.96-1.27-2.12-1.74-1.25-4.74.72-6.76,2.14-2.19,5.27-3.7,8.4-5.01,8.33-3.5,18.37-4.46,27.54-5.98"/>
      <path class="cls-6" d="m64.83,165.53c-8.97-.06-20.2-1.24-29.46-4.77-5.24-2-10.59-4.65-14.76-8.81-1.97-1.97-3.72-4.46-3.79-6.82-.11-3.51,3.51-5.2,7.12-5,3.91.22,8,1.96,11.91,3.88,10.4,5.08,19.78,13.95,28.98,21.52"/>
      <path class="cls-6" d="m88.87,170.42c-6.45-3.81-14.2-9.42-19.8-16-3.17-3.73-6.23-8-7.98-12.94-.83-2.34-1.34-4.98-.67-6.82.98-2.74,4.1-2.51,6.65-.84,2.76,1.8,5.18,4.86,7.42,7.96,5.96,8.25,10.04,18.98,14.39,28.64"/>
      <path class="cls-6" d="m105.32,170.3c-4.14-2.44-9.11-6.04-12.7-10.27-2.04-2.39-4-5.13-5.12-8.3-.53-1.5-.86-3.19-.43-4.37.63-1.76,2.63-1.61,4.27-.54,1.77,1.16,3.32,3.12,4.76,5.11,3.82,5.29,6.44,12.18,9.23,18.37"/>
    </g>
  </g>
  <g>
    <polygon class="cls-3" points="175.12 106.12 82.02 250.02 268.23 248.49 175.12 106.12"/>
    <circle class="cls-4" cx="182.99" cy="305.09" r="62.15"/>
    <rect class="cls-4" x="241.36" y="165.67" width="172.22" height="160.35"/>
  </g>
  <rect class="cls-9" x="309.75" y="131.46" width="144.25" height="134.31"/>
  <g>
    <rect class="cls-1" x="85.79" y="327.74" width="26.67" height="26.67"/>
    <rect class="cls-6" x="112.46" y="327.74" width="26.67" height="26.67"/>
    <rect class="cls-7" x="139.13" y="327.74" width="26.67" height="26.67"/>
    <rect class="cls-5" x="165.79" y="327.74" width="26.67" height="26.67"/>
  </g>
  <g>
    <path class="cls-11" d="m367.02,334.99c0,12.77-10.35,23.12-23.12,23.12s-23.12-10.35-23.12-23.12,10.35-23.12,23.12-23.12,23.12,10.35,23.12,23.12Z"/>
    <g>
      <path class="cls-12" d="m343.8,305.09v12.38c0,2.62,0,5.24,0,7.86v8.61c0,2.89,0,5.77,0,8.66v19.86c0,.78-.01,1.56,0,2.34,0,.03,0,.07,0,.1,0,.98,1.53.99,1.53,0v-5.96c0-2.14,0-4.28,0-6.42v-16.47c0-2.89,0-5.77,0-8.66v-19.86c0-.78.01-1.56,0-2.34,0-.03,0-.07,0-.1,0-.98-1.53-.99-1.53,0h0Z"/>
      <path class="cls-12" d="m374.47,334.23h-57.38c-.78,0-1.56-.01-2.34,0-.03,0-.07,0-.1,0-.98,0-.99,1.53,0,1.53h5.96c2.14,0,4.28,0,6.42,0h16.47c2.89,0,5.77,0,8.66,0h19.86c.78,0,1.56.01,2.34,0,.03,0,.07,0,.1,0,.98,0,.99-1.53,0-1.53h0Z"/>
    </g>
  </g>
  <g>
    <path class="cls-7" d="m67.49,289.02c-8.59,0-15.57-6.98-15.57-15.57s6.98-15.57,15.57-15.57,15.57,6.98,15.57,15.57-6.98,15.57-15.57,15.57Zm0-30.37c-8.16,0-14.8,6.64-14.8,14.8s6.64,14.8,14.8,14.8,14.8-6.64,14.8-14.8-6.64-14.8-14.8-14.8Z"/>
    <g>
      <path class="cls-12" d="m67.34,253.81v37.68c0,.51-.01,1.02,0,1.53,0,.02,0,.04,0,.07,0,.76,1.18.76,1.18,0v-37.68c0-.51.01-1.02,0-1.53,0-.02,0-.04,0-.07,0-.76-1.18-.76-1.18,0h0Z"/>
      <path class="cls-12" d="m87.57,272.86h-37.68c-.51,0-1.02-.01-1.53,0-.02,0-.04,0-.07,0-.76,0-.76,1.18,0,1.18h37.68c.51,0,1.02.01,1.53,0,.02,0,.04,0,.07,0,.76,0,.76-1.18,0-1.18h0Z"/>
    </g>
  </g>
  <path class="cls-7" d="m368.41,116.52h36.92c2.49,0,4.62,1.78,5.06,4.23l2.72,15.14c1.52,8.48,8.9,14.65,17.51,14.65h0l-1.6-35.55c-.3-6.57-5.71-11.74-12.28-11.74h-120.92c-6.94,0-12.66,5.46-12.97,12.4l-1.57,34.9h0c8.61,0,15.99-6.17,17.52-14.65l2.86-15.88c.36-2.01,2.12-3.48,4.16-3.48h37.68c.47,23.01.5,46.14.5,69.09v13.29c0,23.23-.03,46.25-.49,68.81l-16.84,1.8c-6.01.64-10.57,5.72-10.57,11.76h79.72c0-6.05-4.56-11.12-10.57-11.76l-16.84-1.8c-.46-22.92-.49-45.95-.49-68.81v-13.29c0-23.33.03-46.44.5-69.09Z"/>
  <g>
    <path class="cls-10" d="m173.81,314.19h-60.9c-.5,0-.88-.44-.8-.93l3.53-22.9c.06-.4.4-.69.8-.69h51.7c.39,0,.72.27.79.65l4.88,23.87h0Z"/>
    <path class="cls-10" d="m197.03,209.09l-48.62-80.4c-.76-1.26-2.7-.72-2.7.75v71.71c3.01.86,5.21,3.62,5.21,6.91,0,3.97-3.22,7.19-7.19,7.19s-7.19-3.22-7.19-7.19c0-3.34,2.29-6.15,5.38-6.95v-71.89c0-1.45-1.89-2-2.67-.79l-52.39,81.3c-.26.4-.3.9-.12,1.34l28.64,69.84c.22.55.75.9,1.34.9h51.05c.6,0,1.13-.36,1.35-.92l28.01-70.52c.17-.42.13-.9-.11-1.29Z"/>
  </g>
  <g>
    <path class="cls-10" d="m65.46,123.91s69.84-69.84,157.15,0"/>
    <path class="cls-2" d="m67.93,125.7c0,2.52-2.04,4.56-4.56,4.56s-4.56-2.04-4.56-4.56,2.04-4.56,4.56-4.56,4.56,2.04,4.56,4.56Z"/>
    <circle class="cls-2" cx="222.61" cy="125.7" r="4.56"/>
    <rect class="cls-2" x="140.18" y="89.01" width="7.72" height="7.72"/>
  </g>
  <g>
    <path class="cls-5" d="m89.74,388.44c27.94,22.35,52.89,21.19,68.9,16.28,17.39-5.33,28.32-16.11,28.43-16.22l1.04,1.04c-.11.11-11.26,11.12-28.98,16.57-16.37,5.04-41.85,6.26-70.32-16.51l.92-1.15Z"/>
    <path class="cls-5" d="m186.05,387.89c0-1.58,1.28-2.86,2.86-2.86s2.86,1.28,2.86,2.86-1.28,2.86-2.86,2.86-2.86-1.28-2.86-2.86Z"/>
    <path class="cls-5" d="m86.42,387.89c0-1.58,1.28-2.86,2.86-2.86s2.86,1.28,2.86,2.86-1.28,2.86-2.86,2.86-2.86-1.28-2.86-2.86Z"/>
    <rect class="cls-5" x="136.02" y="406.02" width="4.83" height="4.83" transform="translate(276.87 816.86) rotate(180)"/>
  </g>
  <g>
    <path class="cls-5" d="m468.54,203.47c-18.76-15.01-35.52-14.23-46.27-10.93-11.68,3.58-19.02,10.82-19.09,10.89l-.7-.7c.07-.07,7.56-7.47,19.46-11.13,10.99-3.38,28.11-4.2,47.22,11.09l-.62.77Z"/>
    <circle class="cls-5" cx="401.94" cy="203.84" r="1.92"/>
    <circle class="cls-5" cx="468.84" cy="203.84" r="1.92"/>
    <rect class="cls-5" x="434.21" y="188.42" width="3.24" height="3.24"/>
  </g>
  <g>
    <g>
      <g>
        <path class="cls-2" d="m239.36,204.06l-16.02,3.28c-.13.03-.25-.07-.26-.2l-.3-6.21c0-.11.07-.2.17-.22l13.6-2.78c.1-.02.2.03.24.13l2.57,6.01h0Z"/>
        <path class="cls-2" d="m239.81,175.17l-17.11-18.53c-.27-.29-.75-.04-.67.34l3.86,18.86c.84.06,1.56.67,1.74,1.54.21,1.04-.46,2.06-1.5,2.28-1.04.21-2.06-.46-2.28-1.5-.18-.88.27-1.74,1.04-2.12l-3.87-18.9c-.08-.38-.6-.43-.75-.06l-9.41,24.2c-.05.12-.03.25.04.36l11.29,16.83c.09.13.25.2.4.16l13.42-2.75c.16-.03.28-.16.31-.31l3.57-20.05c.02-.12-.01-.24-.1-.33Z"/>
      </g>
      <rect class="cls-13" x="231.17" y="204.64" width="16.56" height="82.43" transform="translate(-44.41 52.97) rotate(-11.56)"/>
    </g>
    <g>
      <rect class="cls-14" x="248.12" y="181.08" width="16.56" height="82.43" transform="translate(-5.84 6.92) rotate(-1.53)"/>
      <g>
        <path class="cls-8" d="m263.59,181.12l-16.34.44c-.13,0-.24-.11-.22-.24l.78-6.17c.01-.11.1-.19.21-.19l13.87-.37c.1,0,.19.07.22.17l1.48,6.37s0,0,0,0Z"/>
        <path class="cls-8" d="m269.07,152.75l-13.62-21.23c-.21-.33-.73-.17-.72.22l.51,19.24c.81.21,1.42.93,1.45,1.82.03,1.07-.81,1.95-1.88,1.98-1.07.03-1.95-.81-1.98-1.88-.02-.9.57-1.67,1.39-1.9l-.51-19.29c-.01-.39-.52-.52-.72-.19l-13.48,22.19c-.07.11-.07.24-.02.36l8.19,18.54c.06.14.21.24.37.23l13.7-.37c.16,0,.3-.11.36-.26l7.01-19.12c.04-.11.03-.24-.04-.34Z"/>
      </g>
    </g>
    <g>
      <polygon class="cls-2" points="291.75 203 275.64 199.01 277.29 192.26 293.27 196.41 291.75 203 291.75 203"/>
      <rect class="cls-13" x="265.58" y="199.56" width="16.56" height="82.43" transform="translate(65.98 -58.82) rotate(13.92)"/>
      <g>
        <polygon class="cls-8" points="293.15 193.88 296.05 181.27 291.52 165.67 281.38 177.66 278.29 190.18 293.15 193.88"/>
        <line class="cls-8" x1="285.66" y1="172.54" x2="294.06" y2="174.42"/>
      </g>
    </g>
    <g>
      <path class="cls-2" d="m220.32,256.51h69.82c1.84,0,3.34,1.5,3.34,3.34v81.22c0,14-11.37,25.37-25.37,25.37h-26.63c-13.5,0-24.46-10.96-24.46-24.46v-82.17c0-1.82,1.48-3.29,3.29-3.29Z"/>
      <rect class="cls-15" x="217.03" y="268.35" width="76.46" height="10.21"/>
      <rect class="cls-15" x="217.03" y="285.35" width="76.46" height="10.21"/>
    </g>
  </g>
  <g>
    <line class="cls-10" x1="436.03" y1="245.85" x2="436.03" y2="409.02"/>
    <line class="cls-10" x1="456.59" y1="390.94" x2="231.07" y2="390.94"/>
  </g>
  <g>
    <path class="cls-2" d="m397.33,380.21l-1.34-3.93c-.88-2.59-2.92-4.63-5.51-5.51l-3.93-1.34,4.01-1.46c2.47-.9,4.42-2.85,5.32-5.32l1.46-4.01,1.02,3.22c.99,3.11,3.43,5.55,6.54,6.54l3.22,1.02-3.31,1.3c-2.82,1.11-4.81,2.01-6.17,6.17l-1.3,3.31Z"/>
    <path class="cls-16" d="m465.43,287.84l-.88-2.58c-.58-1.7-1.91-3.03-3.61-3.61l-2.58-.88,2.62-.96c1.62-.59,2.89-1.86,3.48-3.48l.96-2.62.67,2.11c.65,2.04,2.25,3.64,4.29,4.29l2.11.67-2.17.85c-1.85.73-3.15,1.32-4.04,4.04l-.85,2.17Z"/>
    <path class="cls-16" d="m367.25,384.05c-3.02,0-5.48-2.46-5.48-5.48s2.46-5.48,5.48-5.48,5.48,2.46,5.48,5.48-2.46,5.48-5.48,5.48Zm0-9.32c-2.12,0-3.84,1.72-3.84,3.84s1.72,3.84,3.84,3.84,3.84-1.72,3.84-3.84-1.72-3.84-3.84-3.84Z"/>
    <path class="cls-16" d="m472.46,254.87c-1.33,0-2.42-1.09-2.42-2.42s1.09-2.42,2.42-2.42,2.42,1.09,2.42,2.42-1.09,2.42-2.42,2.42Zm0-4.12c-.93,0-1.69.76-1.69,1.69s.76,1.69,1.69,1.69,1.69-.76,1.69-1.69-.76-1.69-1.69-1.69Z"/>
    <path class="cls-16" d="m303.09,370.55c-1.33,0-2.42-1.09-2.42-2.42s1.09-2.42,2.42-2.42,2.42,1.09,2.42,2.42-1.09,2.42-2.42,2.42Zm0-4.12c-.93,0-1.69.76-1.69,1.69s.76,1.69,1.69,1.69,1.69-.76,1.69-1.69-.76-1.69-1.69-1.69Z"/>
  </g>
  <g>
    <path class="cls-16" d="m239.91,107.52l-1.34-3.93c-.88-2.59-2.92-4.63-5.51-5.51l-3.93-1.34,4.01-1.46c2.47-.9,4.42-2.85,5.32-5.32l1.46-4.01,1.02,3.22c.99,3.11,3.43,5.55,6.54,6.54l3.22,1.02-3.31,1.3c-2.82,1.11-4.81,2.01-6.17,6.17l-1.3,3.31Z"/>
    <path class="cls-7" d="m41.91,223.45l-1.34-3.93c-.88-2.59-2.92-4.63-5.51-5.51l-3.93-1.34,4.01-1.46c2.47-.9,4.42-2.85,5.32-5.32l1.46-4.01,1.02,3.22c.99,3.11,3.43,5.55,6.54,6.54l3.22,1.02-3.31,1.3c-2.82,1.11-4.81,2.01-6.17,6.17l-1.3,3.31Z"/>
    <path class="cls-2" d="m114.75,383.24l-.94-2.75c-.62-1.81-2.04-3.24-3.86-3.86l-2.75-.94,2.81-1.02c1.73-.63,3.09-1.99,3.72-3.72l1.02-2.81.72,2.25c.69,2.18,2.4,3.89,4.58,4.58l2.25.72-2.32.91c-1.98.78-3.37,1.41-4.32,4.32l-.91,2.32Z"/>
    <path class="cls-16" d="m264.77,121.14c-3.02,0-5.48-2.46-5.48-5.48s2.46-5.48,5.48-5.48,5.48,2.46,5.48,5.48-2.46,5.48-5.48,5.48Zm0-9.32c-2.12,0-3.84,1.72-3.84,3.84s1.72,3.84,3.84,3.84,3.84-1.72,3.84-3.84-1.72-3.84-3.84-3.84Z"/>
    <path class="cls-16" d="m63.36,333.22c-3.02,0-5.48-2.46-5.48-5.48s2.46-5.48,5.48-5.48,5.48,2.46,5.48,5.48-2.46,5.48-5.48,5.48Zm0-9.32c-2.12,0-3.84,1.72-3.84,3.84s1.72,3.84,3.84,3.84,3.84-1.72,3.84-3.84-1.72-3.84-3.84-3.84Z"/>
    <path class="cls-16" d="m136.02,373.31c-1.33,0-2.42-1.09-2.42-2.42s1.09-2.42,2.42-2.42,2.42,1.09,2.42,2.42-1.09,2.42-2.42,2.42Zm0-4.12c-.93,0-1.69.76-1.69,1.69s.76,1.69,1.69,1.69,1.69-.76,1.69-1.69-.76-1.69-1.69-1.69Z"/>
    <path class="cls-16" d="m110.31,130.54c-1.33,0-2.42-1.09-2.42-2.42s1.09-2.42,2.42-2.42,2.42,1.09,2.42,2.42-1.09,2.42-2.42,2.42Zm0-4.12c-.93,0-1.69.76-1.69,1.69s.76,1.69,1.69,1.69,1.69-.76,1.69-1.69-.76-1.69-1.69-1.69Z"/>
    <path class="cls-16" d="m268.23,91.43c-1.33,0-2.42-1.09-2.42-2.42s1.09-2.42,2.42-2.42,2.42,1.09,2.42,2.42-1.09,2.42-2.42,2.42Zm0-4.12c-.93,0-1.69.76-1.69,1.69s.76,1.69,1.69,1.69,1.69-.76,1.69-1.69-.76-1.69-1.69-1.69Z"/>
    <path class="cls-16" d="m60.39,241.8c-3.02,0-5.48-2.46-5.48-5.48s2.46-5.48,5.48-5.48,5.48,2.46,5.48,5.48-2.46,5.48-5.48,5.48Zm0-9.32c-2.12,0-3.84,1.72-3.84,3.84s1.72,3.84,3.84,3.84,3.84-1.72,3.84-3.84-1.72-3.84-3.84-3.84Z"/>
  </g>
</svg>